<?xml version="1.0" encoding="UTF-8"?>
<svg version="1.1" xmlns="http://www.w3.org/2000/svg" width="293" height="303">
<path d="M0 0 C0.87815036 -0.00226556 1.75630072 -0.00453111 2.6610617 -0.00686532 C5.59167653 -0.01317475 8.52224475 -0.01237791 11.4528656 -0.0115509 C13.55923522 -0.01454438 15.6656043 -0.01794735 17.77197266 -0.02172852 C23.48719486 -0.03055551 29.20240208 -0.03290614 34.91763043 -0.0335443 C38.49260377 -0.03425578 42.06757331 -0.03639199 45.6425457 -0.03904152 C58.12717301 -0.04829207 70.61178966 -0.05237695 83.09642029 -0.05158997 C94.71210057 -0.05098991 106.32773431 -0.06152839 117.94340283 -0.07733363 C127.93179274 -0.0904376 137.9201675 -0.09577263 147.90856594 -0.09513456 C153.86694312 -0.09488032 159.82527896 -0.09769003 165.78364754 -0.10831261 C171.39381258 -0.11804121 177.00389718 -0.11804027 182.61406517 -0.11079597 C184.6642023 -0.10975589 186.71434457 -0.11207847 188.76447296 -0.11815643 C221.22709129 -0.2081027 221.22709129 -0.2081027 231.97801208 9.95402527 C245.46008906 24.21557993 244.35407611 42.75635295 244.29515076 61.12223816 C244.29622624 63.0887305 244.29816885 65.05522252 244.30090332 67.02171326 C244.30571462 72.32175177 244.29814063 77.62170493 244.28795028 82.92173314 C244.27909708 88.5021117 244.28092869 94.08248816 244.28131104 99.66287231 C244.28037692 109.03785102 244.27173084 118.4127972 244.25804138 127.7877655 C244.24235082 138.57183594 244.23704238 149.35587073 244.23777694 160.13995177 C244.23845691 171.68850049 244.23148763 183.23703577 244.22233033 194.7855804 C244.22021597 198.08084017 244.21949146 201.37609772 244.21909142 204.67135811 C244.21807333 209.88766874 244.21185984 215.10395044 244.20192528 220.32025146 C244.19904871 222.21545166 244.19776481 224.11065518 244.19835281 226.00585747 C244.20027806 236.00473402 244.05945467 245.99044123 243.67596436 255.98257446 C243.64671472 256.89005088 243.61746508 257.7975273 243.58732909 258.732503 C243.03642072 271.34848284 238.20248585 281.43617408 228.95457458 290.09855652 C219.47369555 298.00764961 209.46957491 300.287295 197.38761902 300.27415466 C196.09806836 300.27861135 196.09806836 300.27861135 194.78246617 300.28315806 C191.9085106 300.29181335 189.03459683 300.29335062 186.16062927 300.29484558 C184.09717724 300.29947597 182.03372607 300.30450093 179.97027588 300.30989075 C174.36889903 300.3229948 168.76753415 300.32945573 163.16614437 300.33390141 C159.66474434 300.33683514 156.16334755 300.3409405 152.66194916 300.34540558 C141.70131151 300.35907479 130.74068132 300.36874447 119.78003573 300.37260747 C107.13771547 300.37708799 94.49550333 300.3946381 81.85321593 300.42360806 C72.07382415 300.4452381 62.29446276 300.45531245 52.51504731 300.45664859 C46.67748241 300.45769559 40.84001923 300.46358139 35.00247955 300.4814682 C29.50968303 300.49797182 24.01706446 300.50009319 18.52425194 300.49132919 C16.51274577 300.49056007 14.50122994 300.49488501 12.489748 300.50478745 C-0.93246744 300.56696892 -11.68497408 300.18218206 -22.94776917 292.13371277 C-23.81401917 291.53558777 -24.68026917 290.93746277 -25.57276917 290.32121277 C-33.26302493 283.23808246 -39.53347458 272.79478528 -40.04206526 262.16239727 C-40.08582706 259.69699126 -40.09545453 257.23340807 -40.09494019 254.76760864 C-40.09861687 253.82033561 -40.10229356 252.87306257 -40.10608166 251.8970843 C-40.11710083 248.72066524 -40.12095937 245.54427892 -40.12477112 242.36784363 C-40.13103714 240.09103797 -40.13768406 237.81423333 -40.14468384 235.53742981 C-40.16571147 228.05781261 -40.17608555 220.57819523 -40.18605042 213.09855652 C-40.19009856 210.52176465 -40.1942155 207.94497288 -40.1984005 205.36818123 C-40.2152677 194.64762959 -40.22990187 183.92708165 -40.23714924 173.20651913 C-40.23905896 170.42679785 -40.24097931 167.64707659 -40.24293518 164.86735535 C-40.24366079 163.83109833 -40.24366079 163.83109833 -40.24440106 162.77390683 C-40.25269489 151.59195614 -40.27802231 140.41011264 -40.31051586 129.22820871 C-40.34364454 117.73349933 -40.3612709 106.23886044 -40.36479348 94.74410158 C-40.36714157 88.29609517 -40.37607093 81.84825826 -40.40125465 75.40029716 C-40.42457853 69.33047379 -40.42875105 63.26093099 -40.41849327 57.19107437 C-40.41799884 54.96915947 -40.42429163 52.74723056 -40.43804932 50.5253582 C-40.58968343 24.57431443 -40.58968343 24.57431443 -32.44776917 13.50871277 C-31.88058167 12.71207214 -31.31339417 11.91543152 -30.72901917 11.09465027 C-28.909366 9.0914356 -27.43389596 8.1477908 -24.94776917 7.13371277 C-24.94776917 6.47371277 -24.94776917 5.81371277 -24.94776917 5.13371277 C-23.59920955 4.47625173 -22.24352885 3.83339302 -20.88526917 3.19621277 C-20.1311676 2.83656433 -19.37706604 2.47691589 -18.60011292 2.10636902 C-12.59341335 -0.09638237 -6.31340024 -0.01206278 0 0 Z " fill="#131920" transform="translate(43.94776916503906,0.8662872314453125)"/>
<path d="M0 0 C3.6817733 0.63302411 7.29725193 0.63505697 11.02014637 0.62646198 C12.24315347 0.62963555 12.24315347 0.62963555 13.49086779 0.63287324 C16.22058613 0.63886057 18.95025808 0.63787399 21.67998219 0.63700581 C23.63815864 0.64003813 25.59633439 0.64355979 27.55450916 0.64753437 C31.77075561 0.6554179 35.98699361 0.66056622 40.20324612 0.66382504 C46.87225014 0.66973921 53.54120092 0.68628327 60.21017933 0.70516682 C62.49408528 0.71150403 64.77799126 0.71782965 67.06189728 0.72414398 C68.20561055 0.72730979 69.34932381 0.7304756 70.52769506 0.73373735 C86.05240637 0.77580343 101.57709266 0.80879284 117.10185719 0.82108784 C127.57596619 0.82946811 138.04994311 0.85195649 148.52398604 0.8904435 C154.0652889 0.91020284 159.6063943 0.92260903 165.14773464 0.91760921 C170.36072307 0.91296281 175.57333715 0.92676809 180.78625011 0.95462132 C182.69698705 0.96153276 184.6077627 0.96166016 186.51849842 0.95442104 C189.13236571 0.94551981 191.74500184 0.96124638 194.35876942 0.9829073 C195.48598391 0.97024349 195.48598391 0.97024349 196.63597041 0.95732385 C202.64568243 1.04906216 207.96719138 2.74474679 212.41256553 6.94237787 C216.57913183 11.76204801 218.42807429 15.67613642 218.25102711 21.9873476 C217.43421004 27.50731136 215.16144518 32.55543118 210.87212086 36.20219135 C205.01632314 39.95119838 200.12646886 40.64384298 193.23441029 40.64233112 C191.89357658 40.64784616 191.89357658 40.64784616 190.52565533 40.6534726 C187.51800983 40.66452179 184.51039886 40.66835541 181.50273609 40.67216206 C179.35105752 40.67842587 177.19938004 40.6850726 175.04770374 40.69207478 C169.19202856 40.70949426 163.33636155 40.72003956 157.48066688 40.72828031 C153.82199159 40.73342944 150.16331884 40.73950527 146.50464535 40.74579144 C135.05704978 40.76484788 123.60946068 40.77907693 112.1618523 40.7874034 C98.94895825 40.79717242 85.73623188 40.82348142 72.52339691 40.8639043 C62.31094898 40.89407505 52.09854907 40.90887328 41.88605744 40.91218442 C35.78684306 40.91453417 29.68780772 40.92348491 23.58864117 40.94864559 C17.84715611 40.97194729 12.1059677 40.97615091 6.36444759 40.96588421 C4.26102302 40.96538922 2.15758374 40.97169861 0.05420399 40.98544025 C-23.07338907 41.12803845 -23.07338907 41.12803845 -30.05841446 34.71574593 C-35.25851694 29.20688863 -35.5563821 23.94526866 -35.44819164 16.5342226 C-34.82101337 10.72535721 -32.34280093 7.59616249 -28.19428539 3.6748476 C-20.48490452 -2.05059933 -9.17822217 -2.18555995 0 0 Z " fill="#EDEFF2" transform="translate(54.12006664276123,233.50483989715576)"/>
<path d="M0 0 C1.3589864 -0.00551503 1.3589864 -0.00551503 2.74542707 -0.01114148 C5.79997113 -0.02220855 8.85448122 -0.02602731 11.90904236 -0.02983093 C14.09175221 -0.03609342 16.27446098 -0.04274002 18.45716858 -0.04974365 C24.40167603 -0.06717608 30.34617541 -0.07771203 36.2907021 -0.08594918 C40.00380484 -0.09109573 43.71690506 -0.09717169 47.43000603 -0.10346031 C59.04472494 -0.12252063 70.65943747 -0.13674867 82.27416903 -0.14507228 C83.61160728 -0.14604081 84.94904552 -0.14701505 86.28648376 -0.147995 C86.94989906 -0.14847874 87.61331436 -0.14896248 88.29683315 -0.14946087 C98.36764978 -0.15723923 108.43836796 -0.17906524 118.50914001 -0.20951843 C130.20420382 -0.24476782 141.89918774 -0.266115 153.59430593 -0.26985329 C159.78460505 -0.27220436 165.97472787 -0.28117206 172.16497993 -0.30631447 C177.99180806 -0.32959722 183.81834387 -0.3338274 189.64520645 -0.32355309 C191.78130121 -0.32305763 193.91741037 -0.32938084 196.05346107 -0.34310913 C198.97576825 -0.36083608 201.89702738 -0.35371753 204.81933594 -0.34057617 C205.6594376 -0.35154542 206.49953925 -0.36251466 207.36509854 -0.37381631 C214.03427405 -0.30169446 220.27484827 1.24894259 225.24459988 5.92651576 C230.00693653 11.22340148 231.82192981 15.40207483 231.67442322 22.54560852 C230.95518194 28.38725106 227.97702041 33.50487853 223.35411072 37.14717102 C218.72345289 39.58481771 214.36655563 39.43306791 209.26480103 39.41459656 C208.34737415 39.41912767 207.42994727 39.42365878 206.48471957 39.4283272 C203.40947524 39.44099103 200.33440755 39.43934954 197.25914001 39.43769836 C195.05465975 39.44368238 192.85018158 39.45048763 190.64570618 39.45805359 C184.65597552 39.47573392 178.66630199 39.48040984 172.67654777 39.48168516 C167.67656437 39.48358387 162.67659429 39.49094111 157.67661601 39.49802935 C146.55362229 39.51338821 135.43064967 39.51936658 124.30764761 39.51801865 C123.64050241 39.51793874 122.97335721 39.51785882 122.28599548 39.51777649 C121.61803315 39.51769473 120.95007082 39.51761297 120.2618672 39.51752873 C109.43933121 39.51671602 98.61693446 39.53585058 87.79443874 39.56405322 C76.67491377 39.59280062 65.55544623 39.60622645 54.43588191 39.60486567 C48.19592706 39.60435571 41.95612976 39.61005779 35.7162075 39.63122177 C29.84664925 39.65058576 23.97739917 39.65074095 18.10783005 39.63618851 C15.95519244 39.63409703 13.80253564 39.63882141 11.64993095 39.65090942 C8.70771591 39.66635961 5.76656371 39.65705483 2.82437134 39.64164734 C1.55124628 39.65707803 1.55124628 39.65707803 0.25240153 39.67282045 C-6.41368841 39.59585423 -11.6639049 37.77833371 -16.70448303 33.33076477 C-17.38704163 32.46644836 -17.38704163 32.46644836 -18.08338928 31.58467102 C-18.55647522 31.00588196 -19.02956116 30.4270929 -19.51698303 29.83076477 C-22.78039872 24.96387148 -22.16630948 18.74540541 -21.64588928 13.14717102 C-17.22503375 3.59812307 -9.92461531 -0.00213824 0 0 Z " fill="#151B23" transform="translate(40.64588928222656,187.8528289794922)"/>
<path d="M0 0 C1.55668418 1.18892384 3.09966825 2.39611082 4.625 3.625 C5.27210938 4.1096875 5.91921875 4.594375 6.5859375 5.09375 C14.97446835 11.68735504 21.76133134 23.08956698 23.625 33.625 C24.64895018 49.01782489 22.99148021 64.68663563 12.69140625 76.921875 C2.50215206 87.74682241 -9.7970737 94.46566839 -24.7878418 95.09619141 C-39.91182969 95.29314876 -49.97848441 89.50070297 -60.95703125 79.203125 C-66.35765562 73.57859415 -69.68800815 67.91675827 -72.375 60.625 C-72.69339844 59.83609375 -73.01179688 59.0471875 -73.33984375 58.234375 C-77.94358063 45.42028711 -75.72807083 32.17555006 -70.20703125 20.0625 C-63.84240287 7.86877831 -52.56663481 -2.12126747 -39.375 -6.375 C-26.02033509 -9.73078759 -11.39133706 -7.73718828 0 0 Z " fill="#161B22" transform="translate(170.375,50.375)"/>
<path d="M0 0 C1.3589864 -0.00551503 1.3589864 -0.00551503 2.74542707 -0.01114148 C5.79997113 -0.02220855 8.85448122 -0.02602731 11.90904236 -0.02983093 C14.09175221 -0.03609342 16.27446098 -0.04274002 18.45716858 -0.04974365 C24.40167603 -0.06717608 30.34617541 -0.07771203 36.2907021 -0.08594918 C40.00380484 -0.09109573 43.71690506 -0.09717169 47.43000603 -0.10346031 C59.04472494 -0.12252063 70.65943747 -0.13674867 82.27416903 -0.14507228 C83.61160728 -0.14604081 84.94904552 -0.14701505 86.28648376 -0.147995 C86.94989906 -0.14847874 87.61331436 -0.14896248 88.29683315 -0.14946087 C98.36764978 -0.15723923 108.43836796 -0.17906524 118.50914001 -0.20951843 C130.20420382 -0.24476782 141.89918774 -0.266115 153.59430593 -0.26985329 C159.78460505 -0.27220436 165.97472787 -0.28117206 172.16497993 -0.30631447 C177.99180806 -0.32959722 183.81834387 -0.3338274 189.64520645 -0.32355309 C191.78130121 -0.32305763 193.91741037 -0.32938084 196.05346107 -0.34310913 C198.97576825 -0.36083608 201.89702738 -0.35371753 204.81933594 -0.34057617 C205.6594376 -0.35154542 206.49953925 -0.36251466 207.36509854 -0.37381631 C214.03427405 -0.30169446 220.27484827 1.24894259 225.24459988 5.92651576 C230.00693653 11.22340148 231.82192981 15.40207483 231.67442322 22.54560852 C230.95518194 28.38725106 227.97702041 33.50487853 223.35411072 37.14717102 C218.72345289 39.58481771 214.36655563 39.43306791 209.26480103 39.41459656 C208.34737415 39.41912767 207.42994727 39.42365878 206.48471957 39.4283272 C203.40947524 39.44099103 200.33440755 39.43934954 197.25914001 39.43769836 C195.05465975 39.44368238 192.85018158 39.45048763 190.64570618 39.45805359 C184.65597552 39.47573392 178.66630199 39.48040984 172.67654777 39.48168516 C167.67656437 39.48358387 162.67659429 39.49094111 157.67661601 39.49802935 C146.55362229 39.51338821 135.43064967 39.51936658 124.30764761 39.51801865 C123.64050241 39.51793874 122.97335721 39.51785882 122.28599548 39.51777649 C121.61803315 39.51769473 120.95007082 39.51761297 120.2618672 39.51752873 C109.43933121 39.51671602 98.61693446 39.53585058 87.79443874 39.56405322 C76.67491377 39.59280062 65.55544623 39.60622645 54.43588191 39.60486567 C48.19592706 39.60435571 41.95612976 39.61005779 35.7162075 39.63122177 C29.84664925 39.65058576 23.97739917 39.65074095 18.10783005 39.63618851 C15.95519244 39.63409703 13.80253564 39.63882141 11.64993095 39.65090942 C8.70771591 39.66635961 5.76656371 39.65705483 2.82437134 39.64164734 C1.55124628 39.65707803 1.55124628 39.65707803 0.25240153 39.67282045 C-6.41368841 39.59585423 -11.6639049 37.77833371 -16.70448303 33.33076477 C-17.38704163 32.46644836 -17.38704163 32.46644836 -18.08338928 31.58467102 C-18.55647522 31.00588196 -19.02956116 30.4270929 -19.51698303 29.83076477 C-22.78039872 24.96387148 -22.16630948 18.74540541 -21.64588928 13.14717102 C-17.22503375 3.59812307 -9.92461531 -0.00213824 0 0 Z M-13.52088928 13.33467102 C-15.00904612 17.05506311 -15.53799493 20.25187235 -14.64588928 24.14717102 C-12.75843296 27.59648504 -10.4503411 30.57745818 -6.61082828 31.78969324 C-4.17489728 32.04218709 -1.82679246 32.06624507 0.62182617 32.01586914 C1.54630773 32.02467238 2.47078928 32.03347561 3.42328542 32.04254562 C6.51706567 32.06342108 9.60832635 32.03432291 12.70201111 32.00532532 C14.92136424 32.00989977 17.14071289 32.0174976 19.36004639 32.02789307 C25.38495808 32.04699517 31.40897211 32.02226842 37.4337914 31.98865485 C43.73620029 31.95977685 50.03857422 31.96740167 56.34103394 31.97012329 C66.92406937 31.96913317 77.50679301 31.94086552 88.08970642 31.89497375 C98.97618166 31.8477853 109.86230918 31.82654634 120.74888611 31.83345032 C133.87272569 31.841719 146.99640719 31.83026995 160.12022209 31.79924965 C165.13169119 31.78753615 170.1430913 31.78300407 175.15457344 31.78404808 C181.05375626 31.78392235 186.95253662 31.76363066 192.85160637 31.72765541 C195.01837961 31.71756128 197.18519657 31.71426366 199.35198975 31.71820068 C202.30622239 31.72239714 205.25928787 31.702041 208.21337891 31.67529297 C209.0740763 31.6821695 209.93477368 31.68904602 210.82155281 31.69613093 C214.86628208 31.63353041 216.85907423 31.46508689 220.34337521 29.22744465 C223.43052526 26.03353037 224.21689793 24.20566967 224.79161072 19.77217102 C224.22927165 15.11279018 222.71467088 13.35837296 219.35411072 10.14717102 C214.8242506 7.68487169 210.46113152 7.86381736 205.44116211 7.88647461 C204.09353174 7.88073629 204.09353174 7.88073629 202.71867651 7.87488204 C199.70785355 7.86456224 196.69722165 7.86854227 193.68638611 7.87251282 C191.52792179 7.8681658 189.36945901 7.86298268 187.21099854 7.85702515 C181.34742503 7.84362324 175.48391593 7.84305778 169.6203301 7.84558845 C164.72702814 7.84665729 159.83373927 7.84177703 154.94044012 7.83698303 C143.39773771 7.82588383 131.85506784 7.82545284 120.31236267 7.83149719 C108.40002287 7.83753912 96.48780113 7.82522128 84.57548147 7.80392712 C74.35116003 7.78632165 64.1268762 7.78030808 53.90254015 7.78356487 C47.79458338 7.78537945 41.68671084 7.78272394 35.57876778 7.76885033 C29.83565194 7.75629371 24.09272041 7.75819565 18.34960747 7.77126122 C16.24128533 7.77363122 14.13295031 7.7708772 12.02464294 7.76263809 C9.14756132 7.75220498 6.27110204 7.76024383 3.39404297 7.77294922 C2.55892199 7.76557493 1.72380101 7.75820065 0.86337334 7.7506029 C-4.96632129 7.80479719 -9.53709559 8.68691171 -13.52088928 13.33467102 Z " fill="#91949C" transform="translate(40.64588928222656,187.8528289794922)"/>
<path d="M0 0 C1.55668418 1.18892384 3.09966825 2.39611082 4.625 3.625 C5.27210938 4.1096875 5.91921875 4.594375 6.5859375 5.09375 C14.97446835 11.68735504 21.76133134 23.08956698 23.625 33.625 C24.64895018 49.01782489 22.99148021 64.68663563 12.69140625 76.921875 C2.50215206 87.74682241 -9.7970737 94.46566839 -24.7878418 95.09619141 C-39.91182969 95.29314876 -49.97848441 89.50070297 -60.95703125 79.203125 C-66.35765562 73.57859415 -69.68800815 67.91675827 -72.375 60.625 C-72.69339844 59.83609375 -73.01179688 59.0471875 -73.33984375 58.234375 C-77.94358063 45.42028711 -75.72807083 32.17555006 -70.20703125 20.0625 C-63.84240287 7.86877831 -52.56663481 -2.12126747 -39.375 -6.375 C-26.02033509 -9.73078759 -11.39133706 -7.73718828 0 0 Z M-58.375 14.625 C-67.24421579 25.01176221 -69.16585872 36.26827495 -68.375 49.625 C-66.17942664 62.72401397 -58.80026511 72.737101 -48.375 80.625 C-37.86232114 87.32479015 -28.11525283 89.30779624 -15.70703125 87.1640625 C-4.94005649 83.92444178 5.98831208 75.46492182 11.59765625 65.73828125 C16.76410362 55.11072221 18.62336496 42.25793663 15.94140625 30.671875 C15.00029888 28.18828875 13.92153412 25.94169105 12.625 23.625 C12.22410156 22.86960937 11.82320313 22.11421875 11.41015625 21.3359375 C5.54916528 11.44870057 -4.21480323 4.1956764 -15.24975586 1.09887695 C-32.43959158 -2.73403185 -45.82836692 3.24938601 -58.375 14.625 Z " fill="#F2F4F5" transform="translate(170.375,50.375)"/>
<path d="M0 0 C2.69865636 2.44678177 2.4935272 5.09196976 2.7578125 8.59375 C2.26152344 8.94566406 1.76523438 9.29757813 1.25390625 9.66015625 C-5.82409244 14.80412874 -11.56802565 20.71995041 -17.265625 27.328125 C-21.18202816 31.81728277 -25.22411167 36.19569516 -29.2421875 40.59375 C-33.27047266 39.27186023 -35.3708781 37.73142026 -38.0546875 34.46875 C-38.65925781 33.74429688 -39.26382813 33.01984375 -39.88671875 32.2734375 C-40.33402344 31.71914062 -40.78132813 31.16484375 -41.2421875 30.59375 C-45.80249574 34.39850422 -50.09308142 38.34344621 -54.2421875 42.59375 C-53.8915625 43.17125 -53.5409375 43.74875 -53.1796875 44.34375 C-52.2421875 46.59375 -52.2421875 46.59375 -52.4296875 48.71875 C-53.2421875 50.59375 -53.2421875 50.59375 -56.2421875 52.59375 C-56.9021875 51.93375 -57.5621875 51.27375 -58.2421875 50.59375 C-59.2321875 51.25375 -60.2221875 51.91375 -61.2421875 52.59375 C-65.3129839 42.75599204 -65.88368755 32.07479122 -62.26171875 21.953125 C-56.94287889 9.64439215 -47.69335541 0.70762253 -35.2421875 -4.40625 C-23.84612931 -7.72816076 -10.01493043 -6.28114103 0 0 Z " fill="#11171E" transform="translate(166.2421875,56.40625)"/>
<path d="M0 0 C1.00051392 -0.00197891 1.00051392 -0.00197891 2.02124023 -0.0039978 C4.18868718 -0.00590643 6.35600373 0.00041654 8.5234375 0.0078125 C9.26422546 0.00869873 10.00501343 0.00958496 10.76824951 0.01049805 C25.82628701 0.03153052 40.85460678 0.48219364 55.8984375 1.1328125 C54.9084375 1.4628125 53.9184375 1.7928125 52.8984375 2.1328125 C54.01698336 5.85895403 54.01698336 5.85895403 56.8984375 8.1328125 C56.434375 9.2775 56.434375 9.2775 55.9609375 10.4453125 C55.21950157 12.32070927 54.53615533 14.21965902 53.8984375 16.1328125 C54.6821875 16.2565625 55.4659375 16.3803125 56.2734375 16.5078125 C58.8984375 17.1328125 58.8984375 17.1328125 60.8984375 19.1328125 C60.5234375 22.7578125 60.5234375 22.7578125 59.8984375 26.1328125 C59.1559375 26.2771875 58.4134375 26.4215625 57.6484375 26.5703125 C56.01455906 26.90451491 54.38561955 27.26855843 52.7734375 27.6953125 C49.74571118 28.40178197 47.84871611 28.1162387 44.8984375 27.1328125 C44.0321875 26.9884375 43.1659375 26.8440625 42.2734375 26.6953125 C41.4896875 26.5096875 40.7059375 26.3240625 39.8984375 26.1328125 C39.4034375 25.1428125 39.4034375 25.1428125 38.8984375 24.1328125 C38.4034375 25.6178125 38.4034375 25.6178125 37.8984375 27.1328125 C36.9084375 27.1328125 35.9184375 27.1328125 34.8984375 27.1328125 C34.4034375 23.6678125 34.4034375 23.6678125 33.8984375 20.1328125 C32.9084375 20.1328125 31.9184375 20.1328125 30.8984375 20.1328125 C30.5684375 22.4428125 30.2384375 24.7528125 29.8984375 27.1328125 C28.9084375 26.8028125 27.9184375 26.4728125 26.8984375 26.1328125 C26.8984375 23.8228125 26.8984375 21.5128125 26.8984375 19.1328125 C25.5784375 19.1328125 24.2584375 19.1328125 22.8984375 19.1328125 C22.8984375 20.7828125 22.8984375 22.4328125 22.8984375 24.1328125 C23.8884375 24.1328125 24.8784375 24.1328125 25.8984375 24.1328125 C25.4034375 25.6178125 25.4034375 25.6178125 24.8984375 27.1328125 C22.9184375 27.1328125 20.9384375 27.1328125 18.8984375 27.1328125 C18.8984375 27.7928125 18.8984375 28.4528125 18.8984375 29.1328125 C17.7640625 29.1121875 16.6296875 29.0915625 15.4609375 29.0703125 C12.08268076 28.71703773 12.08268076 28.71703773 10.8984375 30.1328125 C8.89885386 30.17362033 6.89798496 30.17535606 4.8984375 30.1328125 C4.8984375 29.1428125 4.8984375 28.1528125 4.8984375 27.1328125 C6.8784375 27.1328125 8.8584375 27.1328125 10.8984375 27.1328125 C10.5684375 26.4728125 10.2384375 25.8128125 9.8984375 25.1328125 C9.8584455 23.13321238 9.85496951 21.13234008 9.8984375 19.1328125 C8.5784375 19.4628125 7.2584375 19.7928125 5.8984375 20.1328125 C5.5684375 21.7828125 5.2384375 23.4328125 4.8984375 25.1328125 C3.9084375 24.4728125 2.9184375 23.8128125 1.8984375 23.1328125 C1.85496951 21.13328492 1.8584455 19.13241262 1.8984375 17.1328125 C1.2384375 15.8128125 0.5784375 14.4928125 -0.1015625 13.1328125 C-0.7615625 17.7528125 -1.4215625 22.3728125 -2.1015625 27.1328125 C-4.91412531 27.15965562 -7.72643491 27.17957438 -10.5390625 27.1953125 C-11.34150391 27.20369141 -12.14394531 27.21207031 -12.97070312 27.22070312 C-15.01451471 27.2293268 -17.05840152 27.185094 -19.1015625 27.1328125 C-20.1015625 26.1328125 -20.1015625 26.1328125 -20.19921875 22.75390625 C-20.19254619 21.35934173 -20.18058782 19.96479507 -20.1640625 18.5703125 C-20.15955078 17.85939453 -20.15503906 17.14847656 -20.15039062 16.41601562 C-20.13857114 14.65491237 -20.12063513 12.89385214 -20.1015625 11.1328125 C-18.7815625 11.1328125 -17.4615625 11.1328125 -16.1015625 11.1328125 C-16.1015625 9.1528125 -16.1015625 7.1728125 -16.1015625 5.1328125 C-17.7515625 5.1328125 -19.4015625 5.1328125 -21.1015625 5.1328125 C-20.1015625 3.1328125 -20.1015625 3.1328125 -17.4765625 2.0703125 C-11.66075788 0.45481122 -6.01914957 0.0056427 0 0 Z " fill="#191F26" transform="translate(42.1015625,0.8671875)"/>
<path d="M0 0 C1.3589864 -0.00551503 1.3589864 -0.00551503 2.74542707 -0.01114148 C5.79997113 -0.02220855 8.85448122 -0.02602731 11.90904236 -0.02983093 C14.09175221 -0.03609342 16.27446098 -0.04274002 18.45716858 -0.04974365 C24.40167603 -0.06717608 30.34617541 -0.07771203 36.2907021 -0.08594918 C40.00380484 -0.09109573 43.71690506 -0.09717169 47.43000603 -0.10346031 C59.04472494 -0.12252063 70.65943747 -0.13674867 82.27416903 -0.14507228 C83.61160728 -0.14604081 84.94904552 -0.14701505 86.28648376 -0.147995 C86.94989906 -0.14847874 87.61331436 -0.14896248 88.29683315 -0.14946087 C98.36764978 -0.15723923 108.43836796 -0.17906524 118.50914001 -0.20951843 C130.20420382 -0.24476782 141.89918774 -0.266115 153.59430593 -0.26985329 C159.78460505 -0.27220436 165.97472787 -0.28117206 172.16497993 -0.30631447 C177.99180806 -0.32959722 183.81834387 -0.3338274 189.64520645 -0.32355309 C191.78130121 -0.32305763 193.91741037 -0.32938084 196.05346107 -0.34310913 C198.97576825 -0.36083608 201.89702738 -0.35371753 204.81933594 -0.34057617 C205.6594376 -0.35154542 206.49953925 -0.36251466 207.36509854 -0.37381631 C213.44699489 -0.30804542 217.98880517 1.32958905 223.35411072 4.14717102 C222.87973572 4.58029602 222.40536072 5.01342102 221.91661072 5.45967102 C220.11724115 7.17026715 220.11724115 7.17026715 219.35411072 10.14717102 C218.71179064 9.98487912 218.06947056 9.82258722 217.40768623 9.65537739 C213.41450326 8.99079222 209.53801133 9.00736348 205.49690247 9.01586914 C204.60453262 9.01375343 203.71216278 9.01163771 202.79275143 9.00945789 C199.80261276 9.00346635 196.81251639 9.00445742 193.82237244 9.00532532 C191.67874581 9.00229339 189.53511983 8.99877184 187.39149475 8.99479675 C182.77581079 8.98691204 178.16013454 8.98176454 173.54444504 8.97850609 C166.25092449 8.97259753 158.95745277 8.95606025 151.66395569 8.93716431 C149.16785243 8.93082722 146.67174914 8.92450159 144.17564583 8.91818714 C142.92575505 8.91502133 141.67586426 8.91185552 140.388098 8.90859377 C123.40721363 8.8664894 106.42635244 8.8335175 89.44541931 8.82124329 C77.99095516 8.81287866 66.53661225 8.79045075 55.08220875 8.75188762 C49.01848542 8.7320794 42.95494353 8.71973832 36.89118576 8.72472191 C31.19314625 8.72934823 25.49545149 8.71567379 19.79748154 8.68770981 C17.70242443 8.680765 15.60733193 8.68070651 13.5122757 8.68791008 C10.66021823 8.69672895 7.80931491 8.68121865 4.95735168 8.65942383 C4.12127408 8.66786637 3.28519647 8.6763089 2.42378318 8.68500727 C-3.18648576 8.60529245 -3.18648576 8.60529245 -5.68359184 6.11515522 C-6.00115 5.46572043 -6.31870815 4.81628565 -6.64588928 4.14717102 C-6.31588928 3.48717102 -5.98588928 2.82717102 -5.64588928 2.14717102 C-6.63588928 2.47717102 -7.62588928 2.80717102 -8.64588928 3.14717102 C-9.30588928 2.48717102 -9.96588928 1.82717102 -10.64588928 1.14717102 C-7.33570016 -0.50792354 -3.63939332 -0.0007841 0 0 Z " fill="#8B8E96" transform="translate(40.64588928222656,187.8528289794922)"/>
<path d="M0 0 C73.59 0 147.18 0 223 0 C223.33 0.99 223.66 1.98 224 3 C224.33 3.33 224.66 3.66 225 4 C225 4.99 225 5.98 225 7 C220.21963791 7.94581049 215.57940723 8.14600008 210.72416687 8.14044189 C209.90615736 8.14341302 209.08814786 8.14638414 208.24535018 8.1494453 C205.51210776 8.15809681 202.77890931 8.15963757 200.0456543 8.16113281 C198.08222867 8.16576372 196.11880394 8.17078875 194.15538025 8.17617798 C188.82418594 8.189283 183.49300422 8.19574396 178.16179633 8.20018864 C174.8251712 8.20312416 171.48854946 8.20723001 168.15192604 8.21169281 C157.69584345 8.22536657 147.23976867 8.2350322 136.78367776 8.2388947 C124.74590052 8.24336665 112.70823732 8.26087493 100.67049474 8.2898953 C91.34704062 8.31158502 82.0236184 8.32160296 72.70013934 8.32293582 C67.14124685 8.3239792 61.58246156 8.32978631 56.02359581 8.34775543 C50.78439476 8.36436116 45.54538004 8.36633159 40.30616188 8.35761642 C38.39596173 8.35685253 36.48575105 8.36110196 34.57557678 8.37107468 C22.71245375 8.42931572 11.60984786 7.48921141 0 5 C0.99 4.67 1.98 4.34 3 4 C3 3.34 3 2.68 3 2 C2.01 1.34 1.02 0.68 0 0 Z " fill="#121821" transform="translate(40,227)"/>
<path d="M0 0 C1.515625 1.50390625 1.515625 1.50390625 3.25 3.5625 C3.81203125 4.22378906 4.3740625 4.88507813 4.953125 5.56640625 C5.62859375 6.36949219 6.3040625 7.17257813 7 8 C8.99683566 10.33604967 10.99815632 12.66824122 13 15 C4.12627646 24.55312083 -4.84712614 33.97538445 -14.15014648 43.11303711 C-18.12579218 47.03846209 -21.79684504 51.04176343 -25.25952148 55.43139648 C-27.46807301 57.42185006 -29.06006317 57.78427389 -32 58 C-33.96484375 56.40234375 -33.96484375 56.40234375 -35.9375 53.9375 C-39.93549039 49.1737928 -44.14065625 44.74882271 -48.5625 40.375 C-49.19470459 39.747146 -49.82690918 39.11929199 -50.47827148 38.47241211 C-51.98330655 36.97937925 -53.49132792 35.48935765 -55 34 C-53.16307611 29.99625569 -50.50882084 27.28042066 -47.375 24.25 C-46.859375 23.74339844 -46.34375 23.23679687 -45.8125 22.71484375 C-44.54616661 21.47196098 -43.2736856 20.23534724 -42 19 C-40.84775972 19.92961422 -39.70340824 20.8690125 -38.5625 21.8125 C-37.92441406 22.33457031 -37.28632813 22.85664062 -36.62890625 23.39453125 C-35 25 -35 25 -34 28 C-31.67859583 28.78386085 -31.67859583 28.78386085 -29 29 C-27.06011266 27.81072573 -27.06011266 27.81072573 -25.4765625 25.87890625 C-24.8475 25.18990234 -24.2184375 24.50089844 -23.5703125 23.79101562 C-22.92835938 23.05560547 -22.28640625 22.32019531 -21.625 21.5625 C-20.99078125 20.86189453 -20.3565625 20.16128906 -19.703125 19.43945312 C-17.78267162 17.3093176 -15.88766948 15.15921528 -14 13 C-13.36070557 12.26894043 -12.72141113 11.53788086 -12.06274414 10.78466797 C-10.88622618 9.43844658 -9.71107309 8.09103004 -8.5378418 6.74194336 C-2.58584443 0 -2.58584443 0 0 0 Z " fill="#F9FAFB" transform="translate(166,67)"/>
<path d="M0 0 C-0.33 0.99 -0.66 1.98 -1 3 C-0.34 3.66 0.32 4.32 1 5 C1.13525391 7.98095703 1.13525391 7.98095703 0.9765625 11.7578125 C0.93902359 12.75238968 0.93902359 12.75238968 0.90072632 13.76705933 C0.81848733 15.88689015 0.72191635 18.00579437 0.625 20.125 C0.56676418 21.56115994 0.50946081 22.99735802 0.453125 24.43359375 C0.31290458 27.95623602 0.159824 31.4781866 0 35 C-0.99 34.67 -1.98 34.34 -3 34 C-2.125 29.25 -2.125 29.25 -1 27 C-2.98 27 -4.96 27 -7 27 C-7.495 28.485 -7.495 28.485 -8 30 C-11.49644963 30.31785906 -13.397402 30.39644605 -16.375 28.4375 C-18.5996142 25.1005787 -18.50030235 22.93094707 -18 19 C-16.9375 17.0625 -16.9375 17.0625 -15 16 C-11.3125 15.8125 -11.3125 15.8125 -8 16 C-7.505 17.485 -7.505 17.485 -7 19 C-5.35 18.67 -3.7 18.34 -2 18 C-3.39957689 14.61768919 -4.73064421 12.72071358 -8 11 C-12.08587288 10.40575995 -12.08587288 10.40575995 -16 11 C-20.05885367 14.62706072 -21.61321417 17.58499837 -22 23 C-24.97 22.67 -27.94 22.34 -31 22 C-30.67 24.31 -30.34 26.62 -30 29 C-30.99 29.33 -31.98 29.66 -33 30 C-33.03738281 29.38511719 -33.07476562 28.77023438 -33.11328125 28.13671875 C-33.21189453 26.92435547 -33.21189453 26.92435547 -33.3125 25.6875 C-33.37050781 24.88699219 -33.42851562 24.08648437 -33.48828125 23.26171875 C-34.09363936 20.58612832 -34.81693563 19.62822378 -37 18 C-41.07794425 17.57521414 -42.53076119 17.68717413 -46 20 C-46 19.01 -46 18.02 -46 17 C-47.65 17 -49.3 17 -51 17 C-51 22.94 -51 28.88 -51 35 C-51.99 35.495 -51.99 35.495 -53 36 C-53.82351864 29.61773055 -54.12086218 23.43255401 -54 17 C-55.65 17 -57.3 17 -59 17 C-57.74458443 14.48916886 -56.49936512 14.12874554 -54 13 C-54 11.68 -54 10.36 -54 9 C-54.99 8.34 -55.98 7.68 -57 7 C-56.01 6.360625 -55.02 5.72125 -54 5.0625 C-53.01 4.381875 -52.02 3.70125 -51 3 C-51 2.67 -51 2.34 -51 2 C-43.70749657 1.74853436 -43.70749657 1.74853436 -40.23046875 2.984375 C-36.42495956 4.1807866 -32.88831971 4.3826314 -28.9375 4.375 C-27.82846313 4.37584595 -27.82846313 4.37584595 -26.69702148 4.37670898 C-17.60163307 4.19748468 -8.41115263 -1.9921151 0 0 Z " fill="#11171D" transform="translate(172,140)"/>
<path d="M0 0 C1.2890625 -0.00773438 2.578125 -0.01546875 3.90625 -0.0234375 C9.15241892 0.55820297 11.57764642 2.45264642 15.25 6.125 C17.87535272 9.91717616 18.65636847 11.76213006 18.5 16.375 C16.64305734 20.89657989 14.27906339 25.20171121 10.5 28.375 C7.45040264 29.04837102 4.36585534 28.93040776 1.25 28.9375 C0.41597656 28.97423828 -0.41804688 29.01097656 -1.27734375 29.04882812 C-7.03463185 29.08949971 -10.0163581 27.8959897 -14.17114258 23.8996582 C-17.42817545 20.16271712 -18.01271983 16.28510779 -17.8828125 11.3671875 C-17.03256921 6.94245202 -13.75067839 4.30692142 -10.29296875 1.73046875 C-6.70739689 -0.00966193 -3.97260317 -0.02383562 0 0 Z " fill="#121820" transform="translate(42.5,239.625)"/>
<path d="M0 0 C0.33 0 0.66 0 1 0 C1 3.63 1 7.26 1 11 C-1.83709967 11.94569989 -3.56132486 12.12363484 -6.49882507 12.12025452 C-7.42009186 12.12162918 -8.34135864 12.12300385 -9.2905426 12.12442017 C-10.29898727 12.12082489 -11.30743195 12.11722961 -12.34643555 12.11352539 C-13.94180145 12.11374443 -13.94180145 12.11374443 -15.56939697 12.1139679 C-19.09185817 12.11327012 -22.61426677 12.10548401 -26.13671875 12.09765625 C-28.5762377 12.09579159 -31.01575703 12.09436791 -33.45527649 12.09336853 C-39.88161245 12.08954713 -46.30792588 12.07972004 -52.73425293 12.06866455 C-59.28962906 12.05844233 -65.84500883 12.05386917 -72.40039062 12.04882812 C-85.26693671 12.03809746 -98.13346716 12.02121728 -111 12 C-110.75 9.625 -110.75 9.625 -110 7 C-107.13650919 5.13615963 -104.87093602 4.75149067 -101.49481201 4.75949097 C-100.59741302 4.75674164 -99.70001404 4.75399231 -98.77542114 4.75115967 C-97.31022537 4.7619455 -97.31022537 4.7619455 -95.81542969 4.77294922 C-94.7809671 4.77265717 -93.74650452 4.77236511 -92.68069458 4.77206421 C-89.26100277 4.77345769 -85.84152876 4.78901996 -82.421875 4.8046875 C-80.05104695 4.80841756 -77.68021735 4.81126456 -75.30938721 4.81326294 C-69.06880438 4.82089992 -62.82831461 4.84054908 -56.58776855 4.8626709 C-50.21998351 4.88312786 -43.85218343 4.89226434 -37.484375 4.90234375 C-24.98954244 4.92379482 -12.49477896 4.95793164 0 5 C0 3.35 0 1.7 0 0 Z " fill="#62656C" transform="translate(286,31)"/>
<path d="M0 0 C0.33 1.32 0.66 2.64 1 4 C37.63 4 74.26 4 112 4 C111.34 4.33 110.68 4.66 110 5 C110 5.99 110 6.98 110 8 C104.6630823 11.29372771 100.37792041 11.41882623 94.31030273 11.35644531 C92.87263046 11.35951187 92.87263046 11.35951187 91.40591431 11.36264038 C88.24827792 11.36564033 85.0911678 11.34719449 81.93359375 11.328125 C79.73454416 11.32506588 77.53549263 11.32319092 75.33644104 11.32244873 C70.73243774 11.31785058 66.12860982 11.30344286 61.5246582 11.28125 C55.6243384 11.25295159 49.72415652 11.24203605 43.82377529 11.2375679 C39.28476077 11.23341038 34.74577407 11.22359036 30.20677376 11.21169281 C28.03106979 11.20599773 25.85536316 11.20123652 23.67965508 11.19742584 C20.63982325 11.1905478 17.6000998 11.17690826 14.56030273 11.16113281 C13.66198227 11.16001495 12.7636618 11.15889709 11.83811951 11.15774536 C7.76375907 11.12975561 3.97412943 11.02342256 0 10 C0 6.7 0 3.4 0 0 Z " fill="#61666E" transform="translate(4,32)"/>
<path d="M0 0 C2.31 0 4.62 0 7 0 C7 1.98 7 3.96 7 6 C5.68 6 4.36 6 3 6 C3.33 10.95 3.66 15.9 4 21 C9.61 21.33 15.22 21.66 21 22 C20.95875 20.453125 20.9175 18.90625 20.875 17.3125 C20.86395536 13.41926271 21.13274312 10.50110665 23 7 C25.58661032 10.87991548 26.11793012 14.4636406 27 19 C27.66 17.35 28.32 15.7 29 14 C30.32 14 31.64 14 33 14 C33.495 17.96 33.495 17.96 34 22 C31.03 22.495 31.03 22.495 28 23 C28 23.33 28 23.66 28 24 C32.14093698 24.20970559 32.14093698 24.20970559 36 23 C35.34 24.65 34.68 26.3 34 28 C33.34 28 32.68 28 32 28 C32 27.34 32 26.68 32 26 C31.34 26 30.68 26 30 26 C30.495 27.485 30.495 27.485 31 29 C28.69179492 30.15410254 27.39215724 30.1210297 24.82568359 30.11352539 C23.53457169 30.11341209 23.53457169 30.11341209 22.21737671 30.11329651 C21.28712677 30.10813522 20.35687683 30.10297394 19.3984375 30.09765625 C18.44683746 30.0962413 17.49523743 30.09482635 16.51480103 30.09336853 C13.46816903 30.08776012 10.42160987 30.07520619 7.375 30.0625 C5.31250106 30.05748608 3.25000097 30.05292299 1.1875 30.04882812 C-3.87502817 30.03778796 -8.93750173 30.02051767 -14 30 C-14.10676108 19.58582105 -11.17259235 12.93809587 -4.68359375 4.71484375 C-3 3 -3 3 0 2 C0 1.34 0 0.68 0 0 Z " fill="#141B22" transform="translate(19,6)"/>
<path d="M0 0 C14.55882353 0 14.55882353 0 20.4375 5.125 C22.62674629 9.15321318 22.91603889 12.51456819 22 17 C19.64969211 21.54649723 16.78124576 23.0875017 12 25 C8.04 25 4.08 25 0 25 C0 16.75 0 8.5 0 0 Z " fill="#EFF3F4" transform="translate(19,150)"/>
<path d="M0 0 C11.82293733 -0.6887148 11.82293733 -0.6887148 15.6875 1.875 C18.14927122 4.13716815 18.92157427 4.95310775 19.16796875 8.2421875 C19.17441406 9.11101562 19.18085938 9.97984375 19.1875 10.875 C19.20167969 11.73867187 19.21585937 12.60234375 19.23046875 13.4921875 C18.8411759 17.72822154 17.55906435 19.53194612 14.3125 22.25 C10.5484992 24.23852872 8.19473168 24.33557853 4 24 C4.66 22.68 5.32 21.36 6 20 C5.01 20 4.02 20 3 20 C3 19.34 3 18.68 3 18 C2.34 18 1.68 18 1 18 C-0.69304563 15.04888093 -1.25221572 12.9571339 -1.1875 9.5625 C-1.18105469 8.82128906 -1.17460937 8.08007812 -1.16796875 7.31640625 C-0.98649275 4.81372562 -0.53976458 2.44837215 0 0 Z " fill="#CDD0D4" transform="translate(245,243)"/>
<path d="M0 0 C2.39652528 -0.08139142 4.79025436 -0.14067009 7.1875 -0.1875 C7.86103516 -0.21263672 8.53457031 -0.23777344 9.22851562 -0.26367188 C13.72961564 -0.32954163 16.41484361 0.27425498 20 3 C23.07062199 6.07062199 24.77616307 8.27582169 26.0625 12.4375 C25.98485791 16.86309919 25.0037587 19.7215613 22 23 C18.75 24.4375 18.75 24.4375 16 25 C15.938125 24.401875 15.87625 23.80375 15.8125 23.1875 C14.6763243 20.12856542 12.82669858 19.44958901 10 18 C11.55500981 14.18315774 14.03595495 11.80804268 17 9 C16.67 8.01 16.34 7.02 16 6 C15.01 6 14.02 6 13 6 C11.08492222 7.99275175 11.08492222 7.99275175 9.3125 10.5 C8.68988281 11.3353125 8.06726562 12.170625 7.42578125 13.03125 C6.95527344 13.6809375 6.48476563 14.330625 6 15 C-0.63538874 11.62198391 -0.63538874 11.62198391 -2.0625 9.1875 C-1.97040802 5.96428076 -0.91170887 3.0783582 0 0 Z " fill="#070D14" transform="translate(35,240)"/>
<path d="M0 0 C2.66666667 0 5.33333333 0 8 0 C9.010625 -0.04125 10.02125 -0.0825 11.0625 -0.125 C14 0 14 0 16 2 C16.66 1.34 17.32 0.68 18 0 C24.18793524 0.22501583 24.18793524 0.22501583 26.7109375 2.6328125 C28.43776881 5.80390273 28.29511912 8.16269584 28.1875 11.75 C28.16042969 12.92046875 28.13335937 14.0909375 28.10546875 15.296875 C28.07066406 16.18890625 28.03585938 17.0809375 28 18 C26.35 18 24.7 18 23 18 C22.67 14.04 22.34 10.08 22 6 C20.68 6 19.36 6 18 6 C17.67 9.96 17.34 13.92 17 18 C15.35 18 13.7 18 12 18 C11.67 14.04 11.34 10.08 11 6 C9.68 6 8.36 6 7 6 C6.67 9.96 6.34 13.92 6 18 C4.02 18 2.04 18 0 18 C0 12.06 0 6.12 0 0 Z " fill="#F0F4F6" transform="translate(63,157)"/>
<path d="M0 0 C3.76952175 1.19380247 6.35458982 3.8299365 9.03515625 6.64453125 C8.70515625 7.63453125 8.37515625 8.62453125 8.03515625 9.64453125 C6.38515625 9.64453125 4.73515625 9.64453125 3.03515625 9.64453125 C2.70515625 8.98453125 2.37515625 8.32453125 2.03515625 7.64453125 C-1.38140399 7.47775843 -1.38140399 7.47775843 -4.96484375 7.64453125 C-7.3448844 9.57954189 -7.3448844 9.57954189 -7.15234375 13.08203125 C-7.12516292 16.60678872 -7.12516292 16.60678872 -5.96484375 19.64453125 C-3.32484375 19.64453125 -0.68484375 19.64453125 2.03515625 19.64453125 C2.36515625 18.98453125 2.69515625 18.32453125 3.03515625 17.64453125 C5.01515625 17.64453125 6.99515625 17.64453125 9.03515625 17.64453125 C7.68731851 22.05563656 6.00764422 24.26103847 2.03515625 26.64453125 C-2.11844758 27.23790323 -4.16360037 27.12527728 -7.77734375 24.95703125 C-10.02789419 22.57787793 -11.01504484 20.75296404 -11.96484375 17.64453125 C-14.93484375 17.64453125 -17.90484375 17.64453125 -20.96484375 17.64453125 C-20.96484375 15.99453125 -20.96484375 14.34453125 -20.96484375 12.64453125 C-17.99484375 12.97453125 -15.02484375 13.30453125 -11.96484375 13.64453125 C-12.08859375 12.79890625 -12.21234375 11.95328125 -12.33984375 11.08203125 C-11.88231088 6.88797994 -10.66208853 5.03438514 -7.8046875 2.015625 C-5.1671229 0.05005138 -3.24299235 -0.26868723 0 0 Z " fill="#EBEFF0" transform="translate(161.96484375,149.35546875)"/>
<path d="M0 0 C3.93768134 -0.05381797 7.87463132 -0.0935868 11.8125 -0.125 C12.93205078 -0.14175781 14.05160156 -0.15851563 15.20507812 -0.17578125 C16.27822266 -0.18222656 17.35136719 -0.18867188 18.45703125 -0.1953125 C19.9416687 -0.21102295 19.9416687 -0.21102295 21.45629883 -0.22705078 C24 0 24 0 27 2 C27.29296875 4.8203125 27.29296875 4.8203125 27.1875 8.125 C27.16042969 9.22070312 27.13335937 10.31640625 27.10546875 11.4453125 C27.07066406 12.28835938 27.03585938 13.13140625 27 14 C25.35 14 23.7 14 22 14 C21.67 11.03 21.34 8.06 21 5 C20.01 5 19.02 5 18 5 C17.67 7.97 17.34 10.94 17 14 C14.69 14 12.38 14 10 14 C10 10.7 10 7.4 10 4 C8.68 4.33 7.36 4.66 6 5 C5.67 8.3 5.34 11.6 5 15 C3.35 15 1.7 15 0 15 C0 10.05 0 5.1 0 0 Z " fill="#12161B" transform="translate(107,249)"/>
<path d="M0 0 C1.31478333 0.00424484 1.31478333 0.00424484 2.65612793 0.00857544 C5.42714699 0.01967758 8.19783035 0.04476296 10.96875 0.0703125 C12.8593703 0.08035521 14.74999571 0.08947879 16.640625 0.09765625 C21.25012729 0.11958415 25.85938194 0.15404405 30.46875 0.1953125 C30.96375 1.6803125 30.96375 1.6803125 31.46875 3.1953125 C30.80875 4.1853125 30.14875 5.1753125 29.46875 6.1953125 C27.44393921 6.55607605 27.44393921 6.55607605 24.92724609 6.53588867 C23.51600967 6.53554878 23.51600967 6.53554878 22.07626343 6.53520203 C21.05851837 6.51971817 20.04077332 6.50423431 18.9921875 6.48828125 C17.95180328 6.48403641 16.91141907 6.47979156 15.83950806 6.47541809 C12.50732853 6.45858732 9.17574759 6.42092672 5.84375 6.3828125 C3.58855038 6.36777137 1.33334131 6.35408197 -0.921875 6.34179688 C-6.45853855 6.30866949 -11.99485152 6.2584267 -17.53125 6.1953125 C-17.53125 4.8753125 -17.53125 3.5553125 -17.53125 2.1953125 C-11.53148054 0.45441554 -6.22813873 -0.07711817 0 0 Z " fill="#888890" transform="translate(197.53125,251.8046875)"/>
<path d="M0 0 C5.94 0 11.88 0 18 0 C18 4.95 18 9.9 18 15 C15.18743719 15.02684312 12.37512759 15.04676188 9.5625 15.0625 C8.76005859 15.07087891 7.95761719 15.07925781 7.13085938 15.08789062 C5.08704779 15.0965143 3.04316098 15.0522815 1 15 C0 14 0 14 -0.09765625 10.83984375 C-0.04882812 5.41992188 -0.04882812 5.41992188 0 0 Z " fill="#E5EBEC" transform="translate(22,13)"/>
<path d="M0 0 C3.34265205 1.20706879 3.94704566 1.92056849 6 5 C6.5493667 9.86581934 6.73490373 11.8976444 4 16 C0.67112371 18.21925086 -1.13936508 18.75890933 -5.0625 18.4765625 C-8.61497432 17.60276841 -10.01078114 15.9838283 -12 13 C-12.75608333 10.13727226 -12.81144575 7.85444748 -12 5 C-8.30839749 0.78102571 -5.60451911 -0.8528616 0 0 Z " fill="#ECEFF1" transform="translate(55,157)"/>
<path d="M0 0 C0.144375 0.61875 0.28875 1.2375 0.4375 1.875 C0.93152225 4.03258322 0.93152225 4.03258322 2 6 C-3.75 9 -3.75 9 -6 9 C-8.25980539 13.51961078 -8.31983581 17.04254494 -8 22 C-7.34 22.99 -6.68 23.98 -6 25 C-6.125 27.0625 -6.125 27.0625 -7 29 C-9.0625 30.25 -9.0625 30.25 -11 31 C-15.80462325 25.26544967 -16.35204206 21.2899889 -16.28125 13.9453125 C-15.90260285 9.98003536 -14.65192008 7.93861414 -12 5 C-11.236875 4.05125 -10.47375 3.1025 -9.6875 2.125 C-6.27402017 -0.57403057 -4.24405927 -0.41608424 0 0 Z " fill="#9B9DA4" transform="translate(35,190)"/>
<path d="M0 0 C1.65 0 3.3 0 5 0 C5.33 4.62 5.66 9.24 6 14 C6.886875 13.01 7.77375 12.02 8.6875 11 C11.6008348 8.05206503 11.6008348 8.05206503 14.875 7.625 C15.57625 7.74875 16.2775 7.8725 17 8 C15.47291037 11.43595166 13.40072955 14.11912454 11 17 C11.433125 17.55429688 11.86625 18.10859375 12.3125 18.6796875 C13.1478125 19.76636719 13.1478125 19.76636719 14 20.875 C14.556875 21.59429687 15.11375 22.31359375 15.6875 23.0546875 C17 25 17 25 17 27 C14.8125 27.375 14.8125 27.375 12 27 C9.3125 24.0625 9.3125 24.0625 7 21 C6.34 20.67 5.68 20.34 5 20 C5 22.31 5 24.62 5 27 C3.35 27 1.7 27 0 27 C0 18.09 0 9.18 0 0 Z " fill="#E8ECEE" transform="translate(228,149)"/>
<path d="M0 0 C3.34265205 1.20706879 3.94704566 1.92056849 6 5 C6.1953125 8.35546875 6.1953125 8.35546875 6.125 12.1875 C6.10695313 13.45980469 6.08890625 14.73210937 6.0703125 16.04296875 C6.04710938 17.01878906 6.02390625 17.99460938 6 19 C4.68 19 3.36 19 2 19 C2 18.01 2 17.02 2 16 C1.443125 16.495 0.88625 16.99 0.3125 17.5 C-2.4730572 19.30684791 -3.74084723 19.57035173 -7 19 C-9.375 17.3125 -9.375 17.3125 -11 15 C-11 12.375 -11 12.375 -10 10 C-6.88390372 7.57636956 -3.82627315 7.82607849 0 8 C-0.33 7.01 -0.66 6.02 -1 5 C-3.97 5 -6.94 5 -10 5 C-7.27677146 -0.44645708 -5.81968052 -0.34918083 0 0 Z " fill="#EBEFF1" transform="translate(104,157)"/>
<path d="M0 0 C2.35456932 1.79814125 3.36307243 3.42059899 5 6 C5 7.32 5 8.64 5 10 C0.71 10 -3.58 10 -8 10 C-7.01 11.485 -7.01 11.485 -6 13 C-3.33346095 13.36460453 -3.33346095 13.36460453 -0.375 13.1875 C0.62789063 13.16042969 1.63078125 13.13335937 2.6640625 13.10546875 C3.43492187 13.07066406 4.20578125 13.03585938 5 13 C5 13.66 5 14.32 5 15 C1.66916395 17.84339663 -0.19914261 18.98619211 -4.625 19.0625 C-8.69432102 17.78141746 -9.88079505 16.66785473 -12 13 C-13 10.0625 -13 10.0625 -13 7 C-9.55984391 0.71281819 -7.2097791 -0.85539752 0 0 Z " fill="#E1E6E9" transform="translate(258,157)"/>
<path d="M0 0 C2.33690653 1.82149858 3.3610583 3.41742519 5 6 C5 7.32 5 8.64 5 10 C1.04 10 -2.92 10 -7 10 C-6.67 10.99 -6.34 11.98 -6 13 C-3.03 13 -0.06 13 3 13 C3 16 3 16 1.875 17.6875 C-0.94710087 19.66297061 -2.62121159 19.53000602 -6 19 C-10.27876075 16.54367438 -10.27876075 16.54367438 -12 14 C-12.80895451 10.8272919 -12.75893972 8.17949748 -12 5 C-8.7083793 0.11244199 -5.79851376 -1.13899378 0 0 Z " fill="#EEF2F5" transform="translate(204,157)"/>
<path d="M0 0 C1.65 0 3.3 0 5 0 C5 6.6 5 13.2 5 20 C-5.2503962 20.61014263 -5.2503962 20.61014263 -8.6875 17.8125 C-10.10366148 14.77786826 -10.67280597 13.2799291 -10 10 C-8.375 7.6875 -8.375 7.6875 -6 6 C-2.75 5.75 -2.75 5.75 0 6 C0 4.02 0 2.04 0 0 Z " fill="#0C141E" transform="translate(85,243)"/>
<path d="M0 0 C1.32 0 2.64 0 4 0 C4 3.3 4 6.6 4 10 C4.99 9.34 5.98 8.68 7 8 C10.5625 8.1875 10.5625 8.1875 14 9 C16.45391569 12.68087353 16.22802759 15.44355588 16.125 19.6875 C16.11597656 20.38939453 16.10695312 21.09128906 16.09765625 21.81445312 C16.07413704 23.54311525 16.03826713 25.27160145 16 27 C14.68 27 13.36 27 12 27 C11.67 22.71 11.34 18.42 11 14 C8.69 14 6.38 14 4 14 C4 18.29 4 22.58 4 27 C2.68 27 1.36 27 0 27 C0 18.09 0 9.18 0 0 Z " fill="#F3F8F9" transform="translate(173,149)"/>
<path d="M0 0 C1.32 0 2.64 0 4 0 C4.33 0.66 4.66 1.32 5 2 C5.66 1.34 6.32 0.68 7 0 C10.45663985 -0.45086607 12.27518356 -0.51923214 15.1484375 1.5390625 C17.61789644 4.82125477 17.66764604 7.78952303 17.75 11.75 C17.77964844 12.44738281 17.80929688 13.14476562 17.83984375 13.86328125 C17.91018458 15.57490813 17.95739946 17.28745815 18 19 C16.02 19 14.04 19 12 19 C11.67 14.71 11.34 10.42 11 6 C9.02 6 7.04 6 5 6 C4.67 9.96 4.34 13.92 4 18 C2.68 18 1.36 18 0 18 C0 12.06 0 6.12 0 0 Z " fill="#EBEFF1" transform="translate(122,157)"/>
<path d="M0 0 C13.96903249 -0.86110474 13.96903249 -0.86110474 17.8125 2.375 C21.18838409 6.42606091 21.4405901 8.71291876 21 14 C18.97333762 17.70390021 17.51955484 19.65363011 14 22 C11.8125 21.625 11.8125 21.625 10 21 C10 20.34 10 19.68 10 19 C10.49113281 18.57074219 10.98226562 18.14148438 11.48828125 17.69921875 C13.56377394 15.36630061 13.30705476 13.88107223 13.1875 10.8125 C13.14689453 9.46091797 13.14689453 9.46091797 13.10546875 8.08203125 C13.05326172 7.05142578 13.05326172 7.05142578 13 6 C12.34 6 11.68 6 11 6 C9.36323743 7.9600281 9.36323743 7.9600281 8 10 C7.79375 9.4225 7.5875 8.845 7.375 8.25 C5.51518335 5.20666366 2.95455813 3.92688574 0 2 C0 1.34 0 0.68 0 0 Z " fill="#161920" transform="translate(244,197)"/>
<path d="M0 0 C2.5 1.625 2.5 1.625 4 4 C4.64250722 7.77472994 4.26836859 9.50620179 2.4375 12.875 C0 15 0 15 -3.5625 15.5 C-7 15 -7 15 -8.875 13.625 C-11.3488919 10.05160059 -11.30311228 7.31935002 -11 3 C-8.83051992 -1.20336765 -4.17489866 -0.74761767 0 0 Z " fill="#1C232C" transform="translate(255,247)"/>
<path d="M0 0 C3.375 1.0625 3.375 1.0625 5.3125 2.75 C6.7363395 5.8489448 6.92653827 7.68432812 6.375 11.0625 C4.08485284 14.0724077 2.58364386 15.76033903 -1.125 16.6875 C-4.83364386 15.76033903 -6.33485284 14.0724077 -8.625 11.0625 C-9.25 8.0625 -9.25 8.0625 -8.625 5.0625 C-5.92665364 1.21940065 -4.75860157 0.08204485 0 0 Z " fill="#F1F2F4" transform="translate(238.625,12.9375)"/>
<path d="M0 0 C3.70864386 0.92716097 5.20985284 2.6150923 7.5 5.625 C8.125 8.625 8.125 8.625 7.5 11.625 C5.375 14.5625 5.375 14.5625 2.5 16.625 C-1.16441916 16.69978406 -2.89914885 16.05192056 -5.875 13.9375 C-7.5 11.625 -7.5 11.625 -8.0625 8.6875 C-7.19282262 3.95258981 -4.72210792 1.18052698 0 0 Z " fill="#F0F2F3" transform="translate(260.5,12.375)"/>
<path d="M0 0 C4.99268902 1.47931526 4.99268902 1.47931526 6.375 4 C6.90276637 7.56056467 7.00403915 10.74192169 5.375 14 C2.1120473 15.63147635 -1.11059179 15.6293407 -4.625 15 C-7.125 13.375 -7.125 13.375 -8.625 11 C-9.1875 8.0625 -9.1875 8.0625 -8.625 5 C-5.91953265 1.14675862 -4.77773264 0 0 0 Z " fill="#F3F5F6" transform="translate(215.625,13)"/>
<path d="M0 0 C1.73828125 1.16796875 1.73828125 1.16796875 3 3 C3.29296875 5.69921875 3.29296875 5.69921875 3.1875 8.6875 C3.16042969 9.68136719 3.13335937 10.67523438 3.10546875 11.69921875 C3.07066406 12.45847656 3.03585938 13.21773438 3 14 C-6.91668739 14.61551853 -6.91668739 14.61551853 -10.75 12.4375 C-12.55433184 8.91905291 -12.02389008 6.75426361 -11 3 C-8.79076387 -1.02860707 -4.12010121 -0.84727888 0 0 Z " fill="#1C232B" transform="translate(148,249)"/>
<path d="M0 0 C10.23 0 20.46 0 31 0 C31 1.65 31 3.3 31 5 C29.14285943 6.85714057 26.07492951 6.13048681 23.59375 6.1328125 C22.29308594 6.13410156 20.99242187 6.13539063 19.65234375 6.13671875 C18.97155762 6.13462402 18.29077148 6.1325293 17.58935547 6.13037109 C15.50871485 6.1250224 13.42829011 6.1303168 11.34765625 6.13671875 C9.39666016 6.13478516 9.39666016 6.13478516 7.40625 6.1328125 C6.20291016 6.13168457 4.99957031 6.13055664 3.75976562 6.12939453 C1 6 1 6 0 5 C0 3.35 0 1.7 0 0 Z " fill="#95979D" transform="translate(61,205)"/>
<path d="M0 0 C2.54087813 1.87804036 3.04531534 3.15709319 3.9375 6.25 C4.01368488 10.82109288 3.0972556 13.61951454 0 17 C-3.25 18.4375 -3.25 18.4375 -6 19 C-6.0928125 18.1028125 -6.0928125 18.1028125 -6.1875 17.1875 C-7.3236757 14.12856542 -9.17330142 13.44958901 -12 12 C-10.43989422 7.78771439 -7.5154607 5.65453155 -4 3 C-3.01 2.67 -2.02 2.34 -1 2 C-0.67 1.34 -0.34 0.68 0 0 Z " fill="#13191F" transform="translate(57,246)"/>
<path d="M0 0 C3.65706566 0.68569981 5.38806014 1.95056014 8 4.5625 C8 5.2225 8 5.8825 8 6.5625 C4.7 6.5625 1.4 6.5625 -2 6.5625 C-2.74957157 10.03397842 -2.74957157 10.03397842 -3 13.5625 C0.49234244 13.66228121 3.59437148 13.34092938 7 12.5625 C7 16.5625 7 16.5625 5.4375 18.375 C1.87604567 20.1100675 -0.23678444 19.63770445 -4 18.5625 C-6.51666056 16.43301798 -7.71851452 14.8769841 -8.4140625 11.62890625 C-8.70252837 7.61315764 -8.25693798 5.92523597 -5.875 2.5625 C-3 0.5625 -3 0.5625 0 0 Z " fill="#EAEDEF" transform="translate(219,156.4375)"/>
<path d="M0 0 C8.30078125 -0.390625 8.30078125 -0.390625 11 0 C13.34015774 2.14183929 13.93494892 3.42755046 14.29296875 6.578125 C14.25816406 7.45984375 14.22335938 8.3415625 14.1875 9.25 C14.16042969 10.14203125 14.13335937 11.0340625 14.10546875 11.953125 C14.07066406 12.62859375 14.03585938 13.3040625 14 14 C12.34385343 14.38218767 10.67542976 14.71395102 9 15 C8 14 8 14 7.90234375 11.93359375 C7.91974609 10.69802734 7.91974609 10.69802734 7.9375 9.4375 C7.94652344 8.61121094 7.95554688 7.78492188 7.96484375 6.93359375 C7.97644531 6.29550781 7.98804688 5.65742188 8 5 C6.68 5 5.36 5 4 5 C4 7.97 4 10.94 4 14 C2.68 14 1.36 14 0 14 C0 9.38 0 4.76 0 0 Z " fill="#2E3641" transform="translate(162,249)"/>
<path d="M0 0 C1.9375 1.125 1.9375 1.125 3 3 C3.45279515 6.47142946 3.15153963 8.61273205 1.875 11.875 C0 14 0 14 -2.9375 14.5625 C-6 14 -6 14 -8.375 12.4375 C-10.5996142 9.1005787 -10.50030235 6.93094707 -10 3 C-7.77766882 -1.05248626 -4.20052866 -0.45005664 0 0 Z " fill="#0E1419" transform="translate(102,249)"/>
<path d="M0 0 C7 0 7 0 9.9375 1.625 C12 4 12 4 12.5 7.0625 C11.94374559 10.33049466 11.55635237 11.0274709 9 13 C5.99656194 13.67953435 3.0850723 13.77644404 0 14 C0 9.38 0 4.76 0 0 Z " fill="#121920" transform="translate(24,156)"/>
<path d="M0 0 C0 0.33 0 0.66 0 1 C-1.670625 1.4021875 -1.670625 1.4021875 -3.375 1.8125 C-7.21840951 2.65809019 -7.21840951 2.65809019 -9 6 C25.65 6 60.3 6 96 6 C96 6.33 96 6.66 96 7 C60.03 7 24.06 7 -13 7 C-12 2 -12 2 -10.4375 0.6875 C-6.89342826 -0.31210998 -3.67781281 -0.12259376 0 0 Z " fill="#3F4349" transform="translate(188,36)"/>
<path d="M0 0 C3.20285942 0.21352396 5.81448135 1.07195818 8.8125 2.1875 C8.8125 1.5275 8.8125 0.8675 8.8125 0.1875 C10.1325 0.8475 11.4525 1.5075 12.8125 2.1875 C11.94625 2.80625 11.94625 2.80625 11.0625 3.4375 C8.78733401 5.20707355 6.81254601 7.11602378 4.8125 9.1875 C9.2675 8.6925 9.2675 8.6925 13.8125 8.1875 C14.1425 9.5075 14.4725 10.8275 14.8125 12.1875 C14.18601562 12.27386719 13.55953125 12.36023438 12.9140625 12.44921875 C10.44467125 12.87376709 8.16893158 13.33022416 5.8125 14.1875 C4.13636813 16.65764472 4.13636813 16.65764472 3.8125 19.1875 C3.1525 19.1875 2.4925 19.1875 1.8125 19.1875 C1.77382812 18.24390625 1.77382812 18.24390625 1.734375 17.28125 C1.31532132 10.95734898 -0.0332978 6.68191674 -3.1875 1.1875 C-2.1875 0.1875 -2.1875 0.1875 0 0 Z " fill="#090D13" transform="translate(89.1875,152.8125)"/>
<path d="M0 0 C3.93768134 -0.05381797 7.87463132 -0.0935868 11.8125 -0.125 C12.93205078 -0.14175781 14.05160156 -0.15851563 15.20507812 -0.17578125 C16.27822266 -0.18222656 17.35136719 -0.18867188 18.45703125 -0.1953125 C19.9416687 -0.21102295 19.9416687 -0.21102295 21.45629883 -0.22705078 C24 0 24 0 27 2 C27.29296875 4.8203125 27.29296875 4.8203125 27.1875 8.125 C27.16042969 9.22070312 27.13335937 10.31640625 27.10546875 11.4453125 C27.07066406 12.28835938 27.03585938 13.13140625 27 14 C26.67 14 26.34 14 26 14 C26 11.03 26 8.06 26 5 C24.68 4.67 23.36 4.34 22 4 C21.67 3.01 21.34 2.02 21 1 C19.06166004 1.08715017 17.1242571 1.19532964 15.1875 1.3125 C13.56908203 1.39951172 13.56908203 1.39951172 11.91796875 1.48828125 C9.04907394 1.79135743 9.04907394 1.79135743 7.15625 3.21875 C5.62953919 5.5707099 5.49333541 7.40263463 5.3125 10.1875 C5.24675781 11.08855469 5.18101563 11.98960937 5.11328125 12.91796875 C5.07589844 13.60503906 5.03851563 14.29210937 5 15 C3.35 15 1.7 15 0 15 C0 10.05 0 5.1 0 0 Z " fill="#1B212B" transform="translate(107,249)"/>
<path d="M0 0 C1.32 0.33 2.64 0.66 4 1 C4 5.91730642 2.22297284 7.43120905 -1 10.75 C-1.47695313 11.25660156 -1.95390625 11.76320313 -2.4453125 12.28515625 C-3.62139874 13.53180766 -4.80956174 14.76704609 -6 16 C-9.59905908 15.44449305 -10.99909799 14.25112752 -13.25 11.4375 C-13.77078125 10.79683594 -14.2915625 10.15617188 -14.828125 9.49609375 C-15.21484375 9.00238281 -15.6015625 8.50867188 -16 8 C-15.34 7.34 -14.68 6.68 -14 6 C-11.06546739 6.36681658 -10.13562754 6.86437246 -8 9 C-5.36 6.03 -2.72 3.06 0 0 Z " fill="#EDF0F3" transform="translate(48,245)"/>
<path d="M0 0 C0.87454834 0.00523682 1.74909668 0.01047363 2.65014648 0.01586914 C3.59438477 0.0190918 4.53862305 0.02231445 5.51147461 0.02563477 C6.50469727 0.03401367 7.49791992 0.04239258 8.52124023 0.05102539 C9.51833008 0.05553711 10.51541992 0.06004883 11.54272461 0.06469727 C14.01478872 0.07652532 16.48673541 0.0930069 18.95874023 0.11352539 C18.95874023 1.76352539 18.95874023 3.41352539 18.95874023 5.11352539 C16.61021495 6.28778803 15.22099958 6.22860712 12.60717773 6.21118164 C11.75639648 6.20795898 10.90561523 6.20473633 10.02905273 6.20141602 C9.13959961 6.19303711 8.25014648 6.1846582 7.33374023 6.17602539 C6.43655273 6.17151367 5.53936523 6.16700195 4.61499023 6.16235352 C2.39617375 6.1505513 0.17749005 6.13408694 -2.04125977 6.11352539 C-2.42344744 4.45737882 -2.75521078 2.78895515 -3.04125977 1.11352539 C-2.04125977 0.11352539 -2.04125977 0.11352539 0 0 Z " fill="#969AA3" transform="translate(37.041259765625,204.886474609375)"/>
<path d="M0 0 C13.2 0 26.4 0 40 0 C40.495 1.485 40.495 1.485 41 3 C40.34 3.99 39.68 4.98 39 6 C36.97518921 6.36076355 36.97518921 6.36076355 34.45849609 6.34057617 C33.04725967 6.34023628 33.04725967 6.34023628 31.60751343 6.33988953 C30.58976837 6.32440567 29.57202332 6.30892181 28.5234375 6.29296875 C27.48305328 6.28872391 26.44266907 6.28447906 25.37075806 6.28010559 C22.03857853 6.26327482 18.70699759 6.22561422 15.375 6.1875 C13.11980038 6.17245887 10.86459131 6.15876947 8.609375 6.14648438 C3.07271145 6.11335699 -2.46360152 6.0631142 -8 6 C-8 5.67 -8 5.34 -8 5 C-6.96593018 4.98018066 -5.93186035 4.96036133 -4.86645508 4.93994141 C-1.01774381 4.86367773 2.8305996 4.77499286 6.67895508 4.68261719 C8.34229248 4.64441304 10.00571008 4.60954537 11.66918945 4.578125 C14.0649068 4.53228766 16.46007609 4.47432533 18.85546875 4.4140625 C19.5952446 4.40251129 20.33502045 4.39096008 21.09721375 4.37905884 C25.41142229 4.25665982 27.85926576 3.65629369 32 2 C21.44 1.67 10.88 1.34 0 1 C0 0.67 0 0.34 0 0 Z " fill="#B1B2B8" transform="translate(188,252)"/>
<path d="M0 0 C0.66 0.33 1.32 0.66 2 1 C1 7 1 7 0.375 9.9375 C-0.06082962 13.49677523 0.43240893 16.46832225 1 20 C1.03635763 21.9996695 1.04876598 24.00059462 1 26 C-0.98 26.99 -0.98 26.99 -3 28 C-5.2477975 25.94766315 -6.0022242 24.99332739 -7 22 C-6 21 -6 21 -3.4375 20.9375 C-2.2309375 20.9684375 -2.2309375 20.9684375 -1 21 C-1.433125 20.38511719 -1.86625 19.77023438 -2.3125 19.13671875 C-2.869375 18.32847656 -3.42625 17.52023438 -4 16.6875 C-4.556875 15.88699219 -5.11375 15.08648437 -5.6875 14.26171875 C-7 12 -7 12 -7 9 C-5.35511706 7.31183067 -3.68662458 5.64646685 -2 4 C-0.70480005 1.83379456 -0.70480005 1.83379456 0 0 Z " fill="#10151B" transform="translate(246,155)"/>
<path d="M0 0 C36.63 0 73.26 0 111 0 C110.34 0.33 109.68 0.66 109 1 C108.67 1.99 108.34 2.98 108 4 C107.21716644 3.67657623 106.43433289 3.35315247 105.6277771 3.01992798 C100.99411568 1.7172016 96.74535246 1.69225167 91.95556641 1.68115234 C90.95982605 1.67110672 89.96408569 1.6610611 88.93817139 1.65071106 C85.65930742 1.6199136 82.380525 1.6028533 79.1015625 1.5859375 C76.82326559 1.56722311 74.54497558 1.5476495 72.26669312 1.5272522 C66.27939938 1.47595376 60.29208318 1.43631565 54.3046875 1.39910889 C48.19134982 1.35905501 42.07810541 1.30796894 35.96484375 1.2578125 C23.97662804 1.16108023 11.98835964 1.07666669 0 1 C0 0.67 0 0.34 0 0 Z " fill="#444B53" transform="translate(5,36)"/>
<path d="M0 0 C1.65 0 3.3 0 5 0 C5.33 0.66 5.66 1.32 6 2 C6.66 1.34 7.32 0.68 8 0 C8.99 0 9.98 0 11 0 C11 1.65 11 3.3 11 5 C9.35 5.66 7.7 6.32 6 7 C5.67 10.63 5.34 14.26 5 18 C3.35 18 1.7 18 0 18 C0 12.06 0 6.12 0 0 Z " fill="#E6ECEE" transform="translate(265,157)"/>
<path d="M0 0 C5.94 0 11.88 0 18 0 C18.66 1.32 19.32 2.64 20 4 C19.67 4.66 19.34 5.32 19 6 C13.06 6 7.12 6 1 6 C0.34 4.68 -0.32 3.36 -1 2 C-0.67 1.34 -0.34 0.68 0 0 Z " fill="#9A9EA5" transform="translate(146,205)"/>
<path d="M0 0 C5.94 0 11.88 0 18 0 C18.33 1.65 18.66 3.3 19 5 C18 6 18 6 16.23413086 6.11352539 C15.48526611 6.10828857 14.73640137 6.10305176 13.96484375 6.09765625 C13.15595703 6.09443359 12.34707031 6.09121094 11.51367188 6.08789062 C10.66353516 6.07951172 9.81339844 6.07113281 8.9375 6.0625 C8.08349609 6.05798828 7.22949219 6.05347656 6.34960938 6.04882812 C4.23304337 6.03700373 2.11651315 6.01906769 0 6 C0 4.02 0 2.04 0 0 Z " fill="#9FA1A7" transform="translate(214,205)"/>
<path d="M0 0 C1.65 0 3.3 0 5 0 C5 0.66 5 1.32 5 2 C5.66 2 6.32 2 7 2 C6.67 7.28 6.34 12.56 6 18 C4.02 18 2.04 18 0 18 C0 12.06 0 6.12 0 0 Z " fill="#DCDFE1" transform="translate(63,157)"/>
<path d="M0 0 C2.375 1 2.375 1 4 2 C3.67 3.98 3.34 5.96 3 8 C2.01 7.34 1.02 6.68 0 6 C-3.12521833 5.83300768 -3.12521833 5.83300768 -6 6 C-6.66 8.97 -7.32 11.94 -8 15 C-9.32 14.34 -10.64 13.68 -12 13 C-12.29795219 10.07013677 -12.50687865 7.85647239 -12 5 C-8.30839749 0.78102571 -5.60451911 -0.8528616 0 0 Z " fill="#EEF1F3" transform="translate(55,157)"/>
<path d="M0 0 C1.11858398 0.00580078 1.11858398 0.00580078 2.25976562 0.01171875 C3.37254883 0.00591797 3.37254883 0.00591797 4.5078125 0 C10.06899561 0.01008374 10.06899561 0.01008374 12.32226562 1.13671875 C11.99226563 2.78671875 11.66226563 4.43671875 11.32226562 6.13671875 C5.71226562 6.13671875 0.10226563 6.13671875 -5.67773438 6.13671875 C-6.00773437 4.48671875 -6.33773437 2.83671875 -6.67773438 1.13671875 C-4.86585595 -0.67515967 -2.40795928 0.00437413 0 0 Z " fill="#A2A5AC" transform="translate(126.677734375,204.86328125)"/>
<path d="M0 0 C1.65 0.33 3.3 0.66 5 1 C5 5.29 5 9.58 5 14 C5.66 14 6.32 14 7 14 C7 14.66 7 15.32 7 16 C6.34 16 5.68 16 5 16 C4.67 16.66 4.34 17.32 4 18 C3.01 17.34 2.02 16.68 1 16 C0.01 16.33 -0.98 16.66 -2 17 C-2.66 16.34 -3.32 15.68 -4 15 C-3.01 14.67 -2.02 14.34 -1 14 C-1.01160156 13.07316406 -1.02320312 12.14632812 -1.03515625 11.19140625 C-1.04417969 9.99386719 -1.05320312 8.79632813 -1.0625 7.5625 C-1.07410156 6.36753906 -1.08570312 5.17257813 -1.09765625 3.94140625 C-1 1 -1 1 0 0 Z " fill="#0A0F16" transform="translate(81,162)"/>
<path d="M0 0 C0.99 0.33 1.98 0.66 3 1 C3 2.65 3 4.3 3 6 C3.94875 5.95875 4.8975 5.9175 5.875 5.875 C9 6 9 6 11 8 C10.625 11.625 10.625 11.625 10 15 C6.846632 15.70074844 4.27275026 16 1 16 C0.67 10.72 0.34 5.44 0 0 Z " fill="#E2E8EB" transform="translate(92,12)"/>
<path d="M0 0 C5.61 0 11.22 0 17 0 C18 4 18 4 17 6 C11.39 6 5.78 6 0 6 C0 4.02 0 2.04 0 0 Z " fill="#9A9DA6" transform="translate(95,205)"/>
<path d="M0 0 C1.85772162 0.08984301 3.71247985 0.24611861 5.5625 0.4375 C7.08037109 0.59025391 7.08037109 0.59025391 8.62890625 0.74609375 C9.80259766 0.87177734 9.80259766 0.87177734 11 1 C11.10824843 2.6026782 11.18570645 4.20745748 11.25 5.8125 C11.29640625 6.70582031 11.3428125 7.59914062 11.390625 8.51953125 C11 11 11 11 8.984375 12.82421875 C8.32953125 13.21222656 7.6746875 13.60023438 7 14 C7.66 12.02 8.32 10.04 9 8 C7.741875 8.226875 6.48375 8.45375 5.1875 8.6875 C1.29919442 9.16319696 1.29919442 9.16319696 -1.0625 7.875 C-2.37182479 5.25635043 -1.86389982 3.73568275 -1 1 C-0.67 0.67 -0.34 0.34 0 0 Z " fill="#0D0F13" transform="translate(217,162)"/>
<path d="M0 0 C2.34432951 1.81099455 3.3622939 3.4193722 5 6 C5 7.32 5 8.64 5 10 C1.04 10 -2.92 10 -7 10 C-5 8 -5 8 -2.375 7.875 C-1.59125 7.91625 -0.8075 7.9575 0 8 C-0.66 7.01 -1.32 6.02 -2 5 C-7.51048782 5.91534948 -7.51048782 5.91534948 -12 9 C-11.52 3.6 -11.52 3.6 -9.375 1.125 C-5.94142871 -0.50142851 -3.75348954 -0.59265624 0 0 Z " fill="#EDF2F5" transform="translate(258,157)"/>
<path d="M0 0 C1 3 1 3 1 6 C1.515625 6.825 2.03125 7.65 2.5625 8.5 C3.036875 9.325 3.51125 10.15 4 11 C3.67 11.99 3.34 12.98 3 14 C0.52260646 14.90837763 -1.33579484 15 -4 15 C-6.46247719 11.30628421 -6.56931388 8.28710603 -6 4 C-3.9 0 -3.9 0 0 0 Z " fill="#10151B" transform="translate(32,200)"/>
<path d="M0 0 C0.66 0.33 1.32 0.66 2 1 C2.66 1 3.32 1 4 1 C4.99 1 5.98 1 7 1 C7.45675183 6.70939788 6.62105556 9.55127459 3 14 C0 16 0 16 -2.1875 15.625 C-2.785625 15.41875 -3.38375 15.2125 -4 15 C-4 14.34 -4 13.68 -4 13 C-3.51917969 12.57074219 -3.03835937 12.14148438 -2.54296875 11.69921875 C-0.48287412 9.43050694 -0.50869616 7.83392087 -0.3125 4.8125 C-0.21388672 3.46091797 -0.21388672 3.46091797 -0.11328125 2.08203125 C-0.05720703 1.05142578 -0.05720703 1.05142578 0 0 Z " fill="#0D131B" transform="translate(258,203)"/>
<path d="M0 0 C2.47923801 -0.02685095 4.9581884 -0.04676547 7.4375 -0.0625 C8.14455078 -0.07087891 8.85160156 -0.07925781 9.58007812 -0.08789062 C11.38693559 -0.09653588 13.19387603 -0.05220011 15 0 C16 1 16 1 16.0625 3.5625 C16.041875 4.366875 16.02125 5.17125 16 6 C13.52076199 6.02685095 11.0418116 6.04676547 8.5625 6.0625 C7.85544922 6.07087891 7.14839844 6.07925781 6.41992188 6.08789062 C4.61306441 6.09653588 2.80612397 6.05220011 1 6 C0 5 0 5 -0.0625 2.4375 C-0.041875 1.633125 -0.02125 0.82875 0 0 Z " fill="#9C9EA3" transform="translate(173,205)"/>
<path d="M0 0 C4.32941947 0.50509894 4.32941947 0.50509894 6.6875 3.1875 C8.75 6.4375 8.75 6.4375 8.75 10.4375 C6.77 10.4375 4.79 10.4375 2.75 10.4375 C2.75 10.1075 2.75 9.7775 2.75 9.4375 C0.44 9.1075 -1.87 8.7775 -4.25 8.4375 C-3.9715625 7.5403125 -3.9715625 7.5403125 -3.6875 6.625 C-3.02906313 4.27341238 -3.02906313 4.27341238 -4.25 1.4375 C-3.25 0.4375 -3.25 0.4375 0 0 Z " fill="#E3E7E9" transform="translate(200.25,156.5625)"/>
<path d="M0 0 C-0.66 0.66 -1.32 1.32 -2 2 C-1.01 2 -0.02 2 1 2 C0.67 4.31 0.34 6.62 0 9 C-0.61875 9.144375 -1.2375 9.28875 -1.875 9.4375 C-4.03258322 9.93152225 -4.03258322 9.93152225 -6 11 C-6.99 11 -7.98 11 -9 11 C-9.75 7.75 -9.75 7.75 -10 4 C-7.29051062 -0.22680343 -4.81814183 -0.43801289 0 0 Z " fill="#171D23" transform="translate(85,249)"/>
<path d="M0 0 C1.69141656 0.08963062 3.37959602 0.24577676 5.0625 0.4375 C6.44115234 0.59025391 6.44115234 0.59025391 7.84765625 0.74609375 C8.55792969 0.82988281 9.26820312 0.91367188 10 1 C9.25561083 4.1385057 8.24162641 7.02009661 7 10 C3.71006898 10.36554789 2.36900115 10.26218503 -0.375 8.3125 C-2 6 -2 6 -1.8125 3.3125 C-1 1 -1 1 0 0 Z " fill="#E1E5E8" transform="translate(95,166)"/>
<path d="M0 0 C1.65 0 3.3 0 5 0 C5 5.61 5 11.22 5 17 C3.35 17 1.7 17 0 17 C0 11.39 0 5.78 0 0 Z " fill="#F8FBFD" transform="translate(113,158)"/>
<path d="M0 0 C1.65 0.33 3.3 0.66 5 1 C5 5.62 5 10.24 5 15 C2.03 14.505 2.03 14.505 -1 14 C-1.02685938 11.85423363 -1.04633088 9.70837355 -1.0625 7.5625 C-1.07410156 6.36753906 -1.08570312 5.17257813 -1.09765625 3.94140625 C-1 1 -1 1 0 0 Z " fill="#04070D" transform="translate(70,162)"/>
<path d="M0 0 C1.65 0 3.3 0 5 0 C5 4.62 5 9.24 5 14 C1 15 1 15 -1 14 C-1.02685938 11.85423363 -1.04633088 9.70837355 -1.0625 7.5625 C-1.07410156 6.36753906 -1.08570313 5.17257813 -1.09765625 3.94140625 C-1 1 -1 1 0 0 Z " fill="#070A11" transform="translate(179,162)"/>
<path d="M0 0 C0.66 0.33 1.32 0.66 2 1 C1.67 2.32 1.34 3.64 1 5 C1.99 5.33 2.98 5.66 4 6 C4 6.99 4 7.98 4 9 C3.34 9 2.68 9 2 9 C2 14.94 2 20.88 2 27 C1.34 27.33 0.68 27.66 0 28 C-0.82351864 21.61773055 -1.12086218 15.43255401 -1 9 C-2.65 9 -4.3 9 -6 9 C-5 7 -5 7 -3 6.1875 C-0.71525923 5.14044802 -0.71525923 5.14044802 -0.25 2.375 C-0.1675 1.59125 -0.085 0.8075 0 0 Z " fill="#04070A" transform="translate(119,148)"/>
<path d="M0 0 C5.94 0 11.88 0 18 0 C18 1.65 18 3.3 18 5 C17.67 4.34 17.34 3.68 17 3 C15.02 3 13.04 3 11 3 C11 4.65 11 6.3 11 8 C9.35 8 7.7 8 6 8 C6 6.02 6 4.04 6 2 C2.88667752 2.66868314 2.88667752 2.66868314 1.8125 5.0625 C1.544375 5.701875 1.27625 6.34125 1 7 C0.67 4.69 0.34 2.38 0 0 Z " fill="#F6FBFC" transform="translate(22,13)"/>
<path d="M0 0 C0.99 0.33 1.98 0.66 3 1 C3.375 3.125 3.375 3.125 3 6 C1.20659643 8.23913252 -0.83452663 10.12454539 -3 12 C-6.65316671 10.75023244 -7.78065836 10.32901247 -10 7 C-10.125 4.3125 -10.125 4.3125 -10 2 C-9.401875 2.495 -8.80375 2.99 -8.1875 3.5 C-6.02970006 5.28276418 -6.02970006 5.28276418 -3 5 C-1.28288757 2.55503957 -1.28288757 2.55503957 0 0 Z " fill="#EEF0F2" transform="translate(255,202)"/>
<path d="M0 0 C4.29 0 8.58 0 13 0 C12.67 1.98 12.34 3.96 12 6 C8.04 6 4.08 6 0 6 C0 4.02 0 2.04 0 0 Z " fill="#8F939A" transform="translate(196,205)"/>
<path d="M0 0 C1.23556641 0.01740234 1.23556641 0.01740234 2.49609375 0.03515625 C3.32238281 0.04417969 4.14867187 0.05320312 5 0.0625 C5.63808594 0.07410156 6.27617188 0.08570312 6.93359375 0.09765625 C6.98751368 1.88899603 7.02634946 3.68079524 7.05859375 5.47265625 C7.08179688 6.47039063 7.105 7.468125 7.12890625 8.49609375 C6.93359375 11.09765625 6.93359375 11.09765625 4.93359375 13.09765625 C1.80859375 13.22265625 1.80859375 13.22265625 -1.06640625 13.09765625 C-1.06640625 12.10765625 -1.06640625 11.11765625 -1.06640625 10.09765625 C0.91359375 10.09765625 2.89359375 10.09765625 4.93359375 10.09765625 C4.60359375 9.43765625 4.27359375 8.77765625 3.93359375 8.09765625 C3.89360175 6.09805613 3.89012576 4.09718383 3.93359375 2.09765625 C2.61359375 2.42765625 1.29359375 2.75765625 -0.06640625 3.09765625 C-0.39640625 4.74765625 -0.72640625 6.39765625 -1.06640625 8.09765625 C-2.05640625 7.43765625 -3.04640625 6.77765625 -4.06640625 6.09765625 C-2.99738005 0.14165312 -2.99738005 0.14165312 0 0 Z " fill="#E7EEF2" transform="translate(48.06640625,17.90234375)"/>
<path d="M0 0 C1.32 0 2.64 0 4 0 C5.50875941 6.03503763 4.64186094 11.89738369 4 18 C2.68 18 1.36 18 0 18 C0 12.06 0 6.12 0 0 Z " fill="#F8FCFD" transform="translate(122,157)"/>
<path d="M0 0 C0.66 0 1.32 0 2 0 C2 1.32 2 2.64 2 4 C2.99 4.33 3.98 4.66 5 5 C4.01 5.33 3.02 5.66 2 6 C2 7.65 2 9.3 2 11 C2.99 11 3.98 11 5 11 C4.67 11.99 4.34 12.98 4 14 C2.68 13.67 1.36 13.34 0 13 C-0.66 10.69 -1.32 8.38 -2 6 C-2.33 8.64 -2.66 11.28 -3 14 C-3.66 14 -4.32 14 -5 14 C-5 10.7 -5 7.4 -5 4 C-3.68 4 -2.36 4 -1 4 C-0.67 2.68 -0.34 1.36 0 0 Z " fill="#D1DADE" transform="translate(63,14)"/>
<path d="M0 0 C0.66 0 1.32 0 2 0 C2 1.65 2 3.3 2 5 C3.65 4.67 5.3 4.34 7 4 C9.60334924 6.71182212 9.99456691 7.89133813 10.1875 11.75 C10.125625 12.8225 10.06375 13.895 10 15 C9.01 15 8.02 15 7 15 C6.67 12.69 6.34 10.38 6 8 C5.01 8 4.02 8 3 8 C2.67 10.31 2.34 12.62 2 15 C1.34 15 0.68 15 0 15 C0 10.05 0 5.1 0 0 Z " fill="#D5DADC" transform="translate(70,13)"/>
<path d="M0 0 C1.65 0 3.3 0 5 0 C5 4.62 5 9.24 5 14 C3.35 14 1.7 14 0 14 C0 9.38 0 4.76 0 0 Z " fill="#2A313C" transform="translate(153,249)"/>
<path d="M0 0 C0.66 0.66 1.32 1.32 2 2 C1.01 2.33 0.02 2.66 -1 3 C-1 2.34 -1 1.68 -1 1 C-2.32 1.33 -3.64 1.66 -5 2 C-5 2.66 -5 3.32 -5 4 C-4.01 4.33 -3.02 4.66 -2 5 C-2.33 6.32 -2.66 7.64 -3 9 C-7.26826873 9 -7.93882432 8.62386487 -11 6 C-11.33 7.32 -11.66 8.64 -12 10 C-11.41018767 3.74798928 -11.41018767 3.74798928 -9.9375 1.0625 C-6.63614182 -0.74792223 -3.72115741 -0.29532995 0 0 Z " fill="#212932" transform="translate(148,249)"/>
<path d="M0 0 C2.31 0.66 4.62 1.32 7 2 C6.47731534 4.76276177 5.89130413 7.3260876 5 10 C3.1875 10.9375 3.1875 10.9375 1 11 C-1.25 9.0625 -1.25 9.0625 -3 7 C-2.67 6.34 -2.34 5.68 -2 5 C-1.34 5 -0.68 5 0 5 C-0.33 4.01 -0.66 3.02 -1 2 C-0.67 1.34 -0.34 0.68 0 0 Z " fill="#21252D" transform="translate(95,252)"/>
<path d="M0 0 C0.33 0 0.66 0 1 0 C1 6.27 1 12.54 1 19 C0.01 18.67 -0.98 18.34 -2 18 C-1.125 13.25 -1.125 13.25 0 11 C-2.97 10.505 -2.97 10.505 -6 10 C-5.67 7.69 -5.34 5.38 -5 3 C-4.360625 2.87625 -3.72125 2.7525 -3.0625 2.625 C-2.0415625 2.315625 -2.0415625 2.315625 -1 2 C-0.67 1.34 -0.34 0.68 0 0 Z " fill="#060A0E" transform="translate(171,156)"/>
<path d="M0 0 C1.98 0.66 3.96 1.32 6 2 C6 6.62 6 11.24 6 16 C5.67 15.34 5.34 14.68 5 14 C0.38 14.33 -4.24 14.66 -9 15 C-9 14.34 -9 13.68 -9 13 C-4.71 13 -0.42 13 4 13 C3.2884375 11.4221875 3.2884375 11.4221875 2.5625 9.8125 C1.20657742 6.65934041 0 3.4877194 0 0 Z " fill="#23292F" transform="translate(259,154)"/>
<path d="M0 0 C0.66 0.33 1.32 0.66 2 1 C2 1.66 2 2.32 2 3 C2.66 3 3.32 3 4 3 C4.6875 4.6875 4.6875 4.6875 5 7 C3.5625 9.75 3.5625 9.75 2 12 C1.38125 11.814375 0.7625 11.62875 0.125 11.4375 C-2.04160178 10.76313824 -2.04160178 10.76313824 -4 12 C-2.7027027 2.7027027 -2.7027027 2.7027027 0 0 Z " fill="#0A1016" transform="translate(225,17)"/>
<path d="M0 0 C2.97 0.495 2.97 0.495 6 1 C5.34 5.29 4.68 9.58 4 14 C2.68 14 1.36 14 0 14 C0 9.38 0 4.76 0 0 Z " fill="#141923" transform="translate(162,249)"/>
<path d="M0 0 C1.65 0 3.3 0 5 0 C5 6.6 5 13.2 5 20 C4.67 19.34 4.34 18.68 4 18 C3.01 17.67 2.02 17.34 1 17 C1 16.01 1 15.02 1 14 C1.66 14 2.32 14 3 14 C3.33 11.69 3.66 9.38 4 7 C2.68 6.67 1.36 6.34 0 6 C0 4.02 0 2.04 0 0 Z " fill="#22292F" transform="translate(85,243)"/>
<path d="M0 0 C0.99 0 1.98 0 3 0 C3 1.98 3 3.96 3 6 C4.65 6 6.3 6 8 6 C8 4.35 8 2.7 8 1 C9.98 1 11.96 1 14 1 C13.67 1.99 13.34 2.98 13 4 C12.34 4 11.68 4 11 4 C10.67 5.32 10.34 6.64 10 8 C6.7 8 3.4 8 0 8 C0 5.36 0 2.72 0 0 Z " fill="#181C1F" transform="translate(25,15)"/>
<path d="M0 0 C13.2 0 26.4 0 40 0 C40.495 1.485 40.495 1.485 41 3 C40.34 3.99 39.68 4.98 39 6 C35.375 6.1875 35.375 6.1875 32 6 C35 4 35 4 38 4 C38 3.01 38 2.02 38 1 C25.46 1 12.92 1 0 1 C0 0.67 0 0.34 0 0 Z " fill="#CFD1D7" transform="translate(188,252)"/>
<path d="M0 0 C3 0.125 3 0.125 4 1.125 C4.125 4.125 4.125 4.125 4 7.125 C3 8.125 3 8.125 0 8.25 C-3 8.125 -3 8.125 -4 7.125 C-4.125 4.125 -4.125 4.125 -4 1.125 C-3 0.125 -3 0.125 0 0 Z " fill="#0D131B" transform="translate(52,161.875)"/>
<path d="M0 0 C3.65316671 1.24976756 4.78065836 1.67098753 7 5 C6.625 7.5625 6.625 7.5625 6 10 C6 10.66 6 11.32 6 12 C5.01 12 4.02 12 3 12 C-0.06806466 8.84169815 -1.49942848 6.38000076 -2 2 C-1.34 2 -0.68 2 0 2 C0 1.34 0 0.68 0 0 Z " fill="#A5A6AD" transform="translate(261,192)"/>
<path d="M0 0 C15.84 0 31.68 0 48 0 C47.34 0.33 46.68 0.66 46 1 C45.67 1.99 45.34 2.98 45 4 C43.79706299 3.51781006 43.79706299 3.51781006 42.56982422 3.02587891 C38.25229865 1.78512918 34.35001424 1.64870477 29.8828125 1.5859375 C29.02565643 1.56657135 28.16850037 1.5472052 27.28536987 1.5272522 C24.56534572 1.46778744 21.84527848 1.42120431 19.125 1.375 C17.27341972 1.3367897 15.42185663 1.29773622 13.5703125 1.2578125 C9.04701575 1.16211336 4.52363584 1.07796094 0 1 C0 0.67 0 0.34 0 0 Z " fill="#3F4750" transform="translate(68,36)"/>
<path d="M0 0 C1.84075559 2.76113338 2.39565399 3.89193482 3 7 C3.2475 8.175625 3.495 9.35125 3.75 10.5625 C4 14 4 14 2.5625 15.9375 C2.046875 16.288125 1.53125 16.63875 1 17 C0.34 16.67 -0.32 16.34 -1 16 C-1.484375 13.671875 -1.484375 13.671875 -1.75 10.75 C-1.84796875 9.79609375 -1.9459375 8.8421875 -2.046875 7.859375 C-1.99635887 4.77789104 -1.31181571 2.76490387 0 0 Z " fill="#090D14" transform="translate(42,13)"/>
<path d="M0 0 C3.96 0 7.92 0 12 0 C11.67 1.32 11.34 2.64 11 4 C11.66 4 12.32 4 13 4 C12.67 4.99 12.34 5.98 12 7 C11.34 6.34 10.68 5.68 10 5 C4.11663097 4.49033587 4.11663097 4.49033587 -1 7 C-0.67 4.69 -0.34 2.38 0 0 Z " fill="#ABABB2" transform="translate(245,243)"/>
<path d="M0 0 C0.66 0 1.32 0 2 0 C2.33 2.31 2.66 4.62 3 7 C4.32 7.33 5.64 7.66 7 8 C7 5.36 7 2.72 7 0 C7.66 0 8.32 0 9 0 C9 3.63 9 7.26 9 11 C5.625 11.1875 5.625 11.1875 2 11 C-0.67927341 6.98108988 -0.15601248 4.75838077 0 0 Z " fill="#EDF6F8" transform="translate(81,17)"/>
<path d="M0 0 C3.93743833 -0.05797565 7.87476719 -0.09358789 11.8125 -0.125 C12.93205078 -0.14175781 14.05160156 -0.15851563 15.20507812 -0.17578125 C16.27822266 -0.18222656 17.35136719 -0.18867188 18.45703125 -0.1953125 C19.9416687 -0.21102295 19.9416687 -0.21102295 21.45629883 -0.22705078 C24 0 24 0 27 2 C27.29296875 4.8203125 27.29296875 4.8203125 27.1875 8.125 C27.16042969 9.22070312 27.13335937 10.31640625 27.10546875 11.4453125 C27.07066406 12.28835938 27.03585938 13.13140625 27 14 C26.67 14 26.34 14 26 14 C26 11.03 26 8.06 26 5 C24.68 4.67 23.36 4.34 22 4 C21.67 3.01 21.34 2.02 21 1 C14.07 1 7.14 1 0 1 C0 0.67 0 0.34 0 0 Z " fill="#505459" transform="translate(107,249)"/>
<path d="M0 0 C1.32 0 2.64 0 4 0 C4.3690205 9.41002278 4.3690205 9.41002278 2 14 C-0.28062828 10.57905758 -0.21925007 9.31812778 -0.125 5.3125 C-0.10695312 4.31863281 -0.08890625 3.32476562 -0.0703125 2.30078125 C-0.04710937 1.54152344 -0.02390625 0.78226563 0 0 Z " fill="#F0F7FB" transform="translate(166,254)"/>
<path d="M0 0 C4.29 0 8.58 0 13 0 C13.33 2.31 13.66 4.62 14 7 C12.68 7 11.36 7 10 7 C10.66 5.35 11.32 3.7 12 2 C8.37 2.33 4.74 2.66 1 3 C0.67 2.01 0.34 1.02 0 0 Z " fill="#050A12" transform="translate(251,168)"/>
<path d="M0 0 C0.66 0.33 1.32 0.66 2 1 C2.99 1 3.98 1 5 1 C5 1.66 5 2.32 5 3 C5.99 3.33 6.98 3.66 8 4 C2.72 4 -2.56 4 -8 4 C-8 3.01 -8 2.02 -8 1 C-5.26094655 -0.36952673 -3.02912668 -0.12621361 0 0 Z " fill="#91929C" transform="translate(188,253)"/>
<path d="M0 0 C3.83310811 0.02060811 3.83310811 0.02060811 6.125 2.3125 C6.455 2.9725 6.785 3.6325 7.125 4.3125 C6.53332031 4.30089844 5.94164062 4.28929687 5.33203125 4.27734375 C1.12268215 4.22927614 -2.7672333 4.25243117 -6.875 5.3125 C-4.47922306 0.36122767 -4.47922306 0.36122767 0 0 Z " fill="#40464E" transform="translate(250.875,246.6875)"/>
<path d="M0 0 C3 1.6875 3 1.6875 6 4 C6.77385361 7.35336563 6.12646217 8.75257402 4.5625 11.8125 C4.046875 12.534375 3.53125 13.25625 3 14 C2.67 14 2.34 14 2 14 C1.66179834 12.4176994 1.32964061 10.83410625 1 9.25 C0.814375 8.36828125 0.62875 7.4865625 0.4375 6.578125 C0 4 0 4 0 0 Z " fill="#0B0F15" transform="translate(39,152)"/>
<path d="M0 0 C0.33 0.99 0.66 1.98 1 3 C-4.75 4.125 -4.75 4.125 -7 3 C-7 4.65 -7 6.3 -7 8 C-7.99 8.33 -8.98 8.66 -10 9 C-10.35789474 3.63157895 -10.35789474 3.63157895 -8.9375 1.125 C-5.99772876 -0.58196395 -3.32129197 -0.18799766 0 0 Z " fill="#1C1F25" transform="translate(102,249)"/>
<path d="M0 0 C0.66 0.33 1.32 0.66 2 1 C2 4.63 2 8.26 2 12 C0.68 12 -0.64 12 -2 12 C-2.28571429 3.42857143 -2.28571429 3.42857143 0 0 Z " fill="#F2F7F8" transform="translate(267,163)"/>
<path d="M0 0 C0.99 0.33 1.98 0.66 3 1 C3 2.65 3 4.3 3 6 C4.98 6 6.96 6 9 6 C9.33 7.32 9.66 8.64 10 10 C9.05125 9.79375 8.1025 9.5875 7.125 9.375 C6.09375 9.25125 5.0625 9.1275 4 9 C3.34 9.66 2.68 10.32 2 11 C0.19769832 7.17010894 -0.19622241 4.21878192 0 0 Z " fill="#E7EFF1" transform="translate(92,12)"/>
<path d="M0 0 C0.66 0.66 1.32 1.32 2 2 C-3.82643885 7.97976619 -3.82643885 7.97976619 -8.625 8.0625 C-9.73875 8.041875 -10.8525 8.02125 -12 8 C-11.34 6.68 -10.68 5.36 -10 4 C-9.0925 4.0825 -8.185 4.165 -7.25 4.25 C-3.89958592 4.31024799 -3.89958592 4.31024799 -1.625 2 C-1.08875 1.34 -0.5525 0.68 0 0 Z " fill="#D2D4D5" transform="translate(261,259)"/>
<path d="M0 0 C1.2065625 0.0309375 1.2065625 0.0309375 2.4375 0.0625 C-2.54919664 4.0174663 -6.55067099 4.19538539 -12.75 4.125 C-13.49958984 4.12048828 -14.24917969 4.11597656 -15.02148438 4.11132812 C-16.86852383 4.09956354 -18.71552213 4.08162865 -20.5625 4.0625 C-20.5625 3.7325 -20.5625 3.4025 -20.5625 3.0625 C-19.34691406 2.92972656 -18.13132813 2.79695312 -16.87890625 2.66015625 C-15.29424516 2.48199909 -13.7096111 2.30360125 -12.125 2.125 C-10.92133789 1.99448242 -10.92133789 1.99448242 -9.69335938 1.86132812 C-6.21451288 1.46500384 -3.22710018 0.07870976 0 0 Z " fill="#94959A" transform="translate(219.5625,252.9375)"/>
<path d="M0 0 C1.32 0.33 2.64 0.66 4 1 C4 3.97 4 6.94 4 10 C2.68 10 1.36 10 0 10 C0 6.7 0 3.4 0 0 Z " fill="#292E3C" transform="translate(117,253)"/>
<path d="M0 0 C2.475 0.495 2.475 0.495 5 1 C5 3.97 5 6.94 5 10 C3.68 10 2.36 10 1 10 C0.67 6.7 0.34 3.4 0 0 Z " fill="#1B252D" transform="translate(128,253)"/>
<path d="M0 0 C0.33 0 0.66 0 1 0 C1.18175781 0.84884766 1.18175781 0.84884766 1.3671875 1.71484375 C1.53476562 2.44832031 1.70234375 3.18179688 1.875 3.9375 C2.03742187 4.66839844 2.19984375 5.39929688 2.3671875 6.15234375 C2.82961523 8.20700294 2.82961523 8.20700294 5 9 C3.25 9.6875 3.25 9.6875 1 10 C-1.125 8.625 -1.125 8.625 -3 7 C-3.66 6.67 -4.32 6.34 -5 6 C-3.35830472 3.97945196 -1.69088222 1.97956942 0 0 Z " fill="#181B22" transform="translate(42,165)"/>
<path d="M0 0 C0.33 0.66 0.66 1.32 1 2 C1.99 1.67 2.98 1.34 4 1 C4.8125 4.25 4.8125 4.25 5 8 C2.5625 10.4375 2.5625 10.4375 0 12 C0 8.04 0 4.08 0 0 Z " fill="#0C1015" transform="translate(234,151)"/>
<path d="M0 0 C1.2065625 0.0309375 1.2065625 0.0309375 2.4375 0.0625 C2.81968767 1.71864657 3.15145102 3.38707024 3.4375 5.0625 C2.4375 6.0625 2.4375 6.0625 -0.125 6.125 C-1.3315625 6.0940625 -1.3315625 6.0940625 -2.5625 6.0625 C-2.94468767 4.40635343 -3.27645102 2.73792976 -3.5625 1.0625 C-2.5625 0.0625 -2.5625 0.0625 0 0 Z " fill="#E1E4E6" transform="translate(115.5625,147.9375)"/>
<path d="M0 0 C0.33 0 0.66 0 1 0 C1 4.62 1 9.24 1 14 C-2.3 14 -5.6 14 -9 14 C-9 13.67 -9 13.34 -9 13 C-8.236875 12.938125 -7.47375 12.87625 -6.6875 12.8125 C-3.85829739 12.22844254 -3.85829739 12.22844254 -2.25 9.875 C-0.81320289 6.57036664 -0.35037405 3.57381527 0 0 Z " fill="#D3DAE0" transform="translate(106,250)"/>
<path d="M0 0 C2.475 0.495 2.475 0.495 5 1 C5.3125 3.6875 5.3125 3.6875 5 7 C2.5 9.875 2.5 9.875 0 12 C0.185625 11.13375 0.37125 10.2675 0.5625 9.375 C1.00667933 5.94847372 0.71954492 3.35787629 0 0 Z " fill="#2B333D" transform="translate(254,250)"/>
<path d="M0 0 C1.00058075 3.00174224 1.31241431 4.87585686 1 8 C-0.5 9.8125 -0.5 9.8125 -2 11 C-2.99 10.67 -3.98 10.34 -5 10 C-5.33 9.01 -5.66 8.02 -6 7 C-4.78515625 5.17578125 -4.78515625 5.17578125 -3.0625 3.3125 C-2.49660156 2.68988281 -1.93070313 2.06726563 -1.34765625 1.42578125 C-0.90292969 0.95527344 -0.45820313 0.48476562 0 0 Z " fill="#191D23" transform="translate(146,115)"/>
<path d="M0 0 C1.32 0 2.64 0 4 0 C4.33 2.64 4.66 5.28 5 8 C2.03 7.505 2.03 7.505 -1 7 C-1.04254356 5.00045254 -1.04080783 2.99958364 -1 1 C-0.67 0.67 -0.34 0.34 0 0 Z " fill="#C9D2D7" transform="translate(48,20)"/>
<path d="M0 0 C0.66 0.33 1.32 0.66 2 1 C2.6328125 3.28515625 2.6328125 3.28515625 3.125 6.0625 C3.29257813 6.98160156 3.46015625 7.90070313 3.6328125 8.84765625 C3.75398438 9.55792969 3.87515625 10.26820313 4 11 C2.35 11 0.7 11 -1 11 C-1.02688151 9.35425434 -1.04634123 7.70838587 -1.0625 6.0625 C-1.07410156 5.14597656 -1.08570312 4.22945313 -1.09765625 3.28515625 C-1 1 -1 1 0 0 Z " fill="#2B3643" transform="translate(108,253)"/>
<path d="M0 0 C1.98 0.99 1.98 0.99 4 2 C4.75 4.625 4.75 4.625 5 7 C4.01 7.33 3.02 7.66 2 8 C2 8.66 2 9.32 2 10 C1.34 9.67 0.68 9.34 0 9 C0 6.03 0 3.06 0 0 Z " fill="#090C10" transform="translate(233,169)"/>
<path d="M0 0 C0.66 0 1.32 0 2 0 C2 1.65 2 3.3 2 5 C2.66 5.33 3.32 5.66 4 6 C3.34 8.97 2.68 11.94 2 15 C1.34 15 0.68 15 0 15 C0 10.05 0 5.1 0 0 Z " fill="#F3F9FB" transform="translate(70,13)"/>
<path d="M0 0 C2.64 0 5.28 0 8 0 C8 0.99 8 1.98 8 3 C5.04335481 4.4783226 2.25770263 4.06032783 -1 4 C-0.67 2.68 -0.34 1.36 0 0 Z " fill="#A8A9AE" transform="translate(66,253)"/>
<path d="M0 0 C0.66 0 1.32 0 2 0 C0.33248852 3.94139078 -2.22710649 6.7892812 -5 10 C-5.99 9.01 -6.98 8.02 -8 7 C-7.34 7 -6.68 7 -6 7 C-5.71125 6.38125 -5.4225 5.7625 -5.125 5.125 C-4 3 -4 3 -2 1 C-1.34 1.33 -0.68 1.66 0 2 C0 1.34 0 0.68 0 0 Z " fill="#1B2024" transform="translate(147,82)"/>
<path d="M0 0 C0.66 0 1.32 0 2 0 C2 3.63 2 7.26 2 11 C1.01 11 0.02 11 -1 11 C-1.02688151 9.35425434 -1.04634123 7.70838587 -1.0625 6.0625 C-1.07410156 5.14597656 -1.08570312 4.22945312 -1.09765625 3.28515625 C-1 1 -1 1 0 0 Z " fill="#3E4B53" transform="translate(91,18)"/>
<path d="M0 0 C1.32 0.33 2.64 0.66 4 1 C1.375 5.875 1.375 5.875 -2 7 C-4.04296875 6.87890625 -4.04296875 6.87890625 -6.1875 6.5625 C-7.445625 6.376875 -8.70375 6.19125 -10 6 C-10 5.67 -10 5.34 -10 5 C-8.906875 4.9175 -7.81375 4.835 -6.6875 4.75 C-2.96723336 4.36310791 -2.96723336 4.36310791 -1.0625 1.9375 C-0.711875 1.298125 -0.36125 0.65875 0 0 Z " fill="#B2B6BB" transform="translate(258,257)"/>
<path d="M0 0 C0 3.63 0 7.26 0 11 C-0.99 11.495 -0.99 11.495 -2 12 C-2.02578125 11.30132812 -2.0515625 10.60265625 -2.078125 9.8828125 C-2.13484375 8.97273438 -2.1915625 8.06265625 -2.25 7.125 C-2.29640625 6.22007812 -2.3428125 5.31515625 -2.390625 4.3828125 C-2.75611148 1.82889456 -2.75611148 1.82889456 -5.046875 0.6796875 C-5.69140625 0.45539063 -6.3359375 0.23109375 -7 0 C-4 -1 -4 -1 0 0 Z " fill="#F8FBFC" transform="translate(161,248)"/>
<path d="M0 0 C4.41889613 1.35021826 6.34345343 3.26115668 9 7 C7.3125 7.8125 7.3125 7.8125 5 8 C2.25 5.75 2.25 5.75 0 3 C0 2.01 0 1.02 0 0 Z " fill="#1F252C" transform="translate(268,6)"/>
<path d="M0 0 C0.99 0.33 1.98 0.66 3 1 C3.1875 3.375 3.1875 3.375 3 6 C2.01 6.66 1.02 7.32 0 8 C-0.99 7.01 -1.98 6.02 -3 5 C-2.01 3.35 -1.02 1.7 0 0 Z " fill="#E7EBED" transform="translate(255,202)"/>
<path d="M0 0 C0.66 0.33 1.32 0.66 2 1 C4.204364 1.22950319 6.41392173 1.41075933 8.625 1.5625 C9.81351563 1.64628906 11.00203125 1.73007813 12.2265625 1.81640625 C13.59941406 1.90728516 13.59941406 1.90728516 15 2 C15 2.33 15 2.66 15 3 C14.01257813 3.03738281 13.02515625 3.07476562 12.0078125 3.11328125 C10.08582031 3.21189453 10.08582031 3.21189453 8.125 3.3125 C6.84882812 3.37050781 5.57265625 3.42851562 4.2578125 3.48828125 C3.18273437 3.65714844 2.10765625 3.82601562 1 4 C0.34 4.99 -0.32 5.98 -1 7 C-1.33 5.02 -1.66 3.04 -2 1 C-1.34 0.67 -0.68 0.34 0 0 Z " fill="#20242D" transform="translate(120,202)"/>
<path d="M0 0 C0.66 0.33 1.32 0.66 2 1 C2 2.33333333 2 3.66666667 2 5 C0.906875 5.433125 -0.18625 5.86625 -1.3125 6.3125 C-4.09408793 7.49495641 -6.06361939 8.60800043 -8 11 C-8.66 10.67 -9.32 10.34 -10 10 C-6.7 6.7 -3.4 3.4 0 0 Z " fill="#303236" transform="translate(165,96)"/>
<path d="M0 0 C2.5 1.1875 2.5 1.1875 5 3 C5.3125 5.6875 5.3125 5.6875 5 8 C3.125 7.875 3.125 7.875 1 7 C-0.25 3.9375 -0.25 3.9375 -1 1 C-0.67 0.67 -0.34 0.34 0 0 Z " fill="#111116" transform="translate(247,200)"/>
<path d="M0 0 C0.33 0 0.66 0 1 0 C1 4.29 1 8.58 1 13 C1.99 13.33 2.98 13.66 4 14 C3.01 14.99 2.02 15.98 1 17 C0.34 16.67 -0.32 16.34 -1 16 C-0.67 15.34 -0.34 14.68 0 14 C-0.99 13.67 -1.98 13.34 -3 13 C-2.01 13 -1.02 13 0 13 C0 8.71 0 4.42 0 0 Z M4 13 C4.66 13 5.32 13 6 13 C5.67 13.66 5.34 14.32 5 15 C4.67 14.34 4.34 13.68 4 13 Z " fill="#393F45" transform="translate(177,163)"/>
<path d="M0 0 C1.98 0 3.96 0 6 0 C5.67 1.65 5.34 3.3 5 5 C3.35 5 1.7 5 0 5 C0 3.35 0 1.7 0 0 Z " fill="#1C1E23" transform="translate(153,242)"/>
<path d="M0 0 C1.32 0 2.64 0 4 0 C4.042721 1.66611905 4.04063832 3.33382885 4 5 C3 6 3 6 -0.5625 6.0625 C-1.696875 6.041875 -2.83125 6.02125 -4 6 C-2.68 5.34 -1.36 4.68 0 4 C0 2.68 0 1.36 0 0 Z " fill="#797C83" transform="translate(88,205)"/>
<path d="M0 0 C1.98 0 3.96 0 6 0 C5.34 1.98 4.68 3.96 4 6 C2.68 6 1.36 6 0 6 C0 4.02 0 2.04 0 0 Z " fill="#8C8E93" transform="translate(214,205)"/>
<path d="M0 0 C0.66 0.33 1.32 0.66 2 1 C1.8125 3.875 1.8125 3.875 1 7 C-1.5625 8.375 -1.5625 8.375 -4 9 C-3.35455571 5.51460083 -1.89865603 2.97180943 0 0 Z " fill="#090F15" transform="translate(246,155)"/>
<path d="M0 0 C2.0625 0.4375 2.0625 0.4375 4 1 C3.67 2.65 3.34 4.3 3 6 C1.68 5.67 0.36 5.34 -1 5 C-1 1 -1 1 0 0 Z " fill="#DCDFE3" transform="translate(98,253)"/>
<path d="M0 0 C2.875 -0.1875 2.875 -0.1875 6 0 C6.66 0.99 7.32 1.98 8 3 C7.01 3.66 6.02 4.32 5 5 C4.34 4.67 3.68 4.34 3 4 C2.01 4.33 1.02 4.66 0 5 C0 3.35 0 1.7 0 0 Z " fill="#212831" transform="translate(167,249)"/>
<path d="M0 0 C1.32 0.33 2.64 0.66 4 1 C4 1.99 4 2.98 4 4 C0.04 4 -3.92 4 -8 4 C-6 2 -6 2 -2.875 1.875 C-1.92625 1.91625 -0.9775 1.9575 0 2 C0 1.34 0 0.68 0 0 Z " fill="#F9FDFE" transform="translate(259,163)"/>
<path d="M0 0 C1.32 0.66 2.64 1.32 4 2 C4 3.32 4 4.64 4 6 C2.35 6 0.7 6 -1 6 C-1.33 5.01 -1.66 4.02 -2 3 C-1.34 2.01 -0.68 1.02 0 0 Z " fill="#DCDFE2" transform="translate(166,153)"/>
<path d="M0 0 C1.98 0.495 1.98 0.495 4 1 C4 3.97 4 6.94 4 10 C3.67 10 3.34 10 3 10 C2.67 7.69 2.34 5.38 2 3 C1.34 5.31 0.68 7.62 0 10 C-0.33 10 -0.66 10 -1 10 C-1.02689216 8.52093108 -1.04634621 7.04172517 -1.0625 5.5625 C-1.07410156 4.73878906 -1.08570312 3.91507812 -1.09765625 3.06640625 C-1 1 -1 1 0 0 Z " fill="#BEC3C9" transform="translate(125,253)"/>
<path d="M0 0 C0 0.99 0 1.98 0 3 C-2.75078884 3.91692961 -4.35948913 4.10886083 -7.1875 4.0625 C-9.0746875 4.0315625 -9.0746875 4.0315625 -11 4 C-5 0 -5 0 0 0 Z " fill="#A6A7AC" transform="translate(226,253)"/>
<path d="M0 0 C1.98 0.495 1.98 0.495 4 1 C3.67 2.65 3.34 4.3 3 6 C1.68 5.67 0.36 5.34 -1 5 C-0.67 3.35 -0.34 1.7 0 0 Z " fill="#D6DEE4" transform="translate(81,253)"/>
<path d="M0 0 C1.65 0.33 3.3 0.66 5 1 C5.33 1.99 5.66 2.98 6 4 C3.36 4 0.72 4 -2 4 C-1.34 2.68 -0.68 1.36 0 0 Z " fill="#43464B" transform="translate(252,161)"/>
<path d="M0 0 C0.66 0 1.32 0 2 0 C2.12117188 0.62648438 2.24234375 1.25296875 2.3671875 1.8984375 C2.53476563 2.71570313 2.70234375 3.53296875 2.875 4.375 C3.03742188 5.18710937 3.19984375 5.99921875 3.3671875 6.8359375 C3.86658932 9.18673923 3.86658932 9.18673923 6 11 C3.5625 10.625 3.5625 10.625 1 10 C-0.60725635 6.78548731 -0.05748185 3.56387464 0 0 Z " fill="#D8DCDF" transform="translate(81,17)"/>
<path d="M0 0 C0.66 1.32 1.32 2.64 2 4 C1.01 4.495 1.01 4.495 0 5 C-0.33 5.99 -0.66 6.98 -1 8 C-3.0625 8.6875 -3.0625 8.6875 -5 9 C-5 8.01 -5 7.02 -5 6 C-4.34 6 -3.68 6 -3 6 C-2.87625 5.195625 -2.7525 4.39125 -2.625 3.5625 C-2.41875 2.716875 -2.2125 1.87125 -2 1 C-1.34 0.67 -0.68 0.34 0 0 Z " fill="#1B2127" transform="translate(211,205)"/>
<path d="M0 0 C3.96 0 7.92 0 12 0 C12 0.33 12 0.66 12 1 C9.36 1.33 6.72 1.66 4 2 C4.99 2.66 5.98 3.32 7 4 C5.02 4 3.04 4 1 4 C0.67 2.68 0.34 1.36 0 0 Z " fill="#272B36" transform="translate(197,167)"/>
<path d="M0 0 C0.66 0 1.32 0 2 0 C1.88658363 2.31309705 1.75896193 4.62550185 1.625 6.9375 C1.52058594 8.86916016 1.52058594 8.86916016 1.4140625 10.83984375 C1.27742188 11.88269531 1.14078125 12.92554688 1 14 C0.01 14.495 0.01 14.495 -1 15 C-1.02685412 12.68756208 -1.04632841 10.3750373 -1.0625 8.0625 C-1.07410156 6.77472656 -1.08570313 5.48695313 -1.09765625 4.16015625 C-1 1 -1 1 0 0 Z " fill="#1F2428" transform="translate(61,157)"/>
<path d="M0 0 C0.33 0 0.66 0 1 0 C1 2.97 1 5.94 1 9 C0.01 8.67 -0.98 8.34 -2 8 C-2.125 5.125 -2.125 5.125 -2 2 C-1.34 1.34 -0.68 0.68 0 0 Z " fill="#F1F7FD" transform="translate(127,255)"/>
<path d="M0 0 C0.33 1.32 0.66 2.64 1 4 C1.33 3.01 1.66 2.02 2 1 C2.99 1 3.98 1 5 1 C4.67 3.31 4.34 5.62 4 8 C3.01 7.67 2.02 7.34 1 7 C0.67 4.69 0.34 2.38 0 0 Z " fill="#20262F" transform="translate(75,253)"/>
<path d="M0 0 C0.33 0.66 0.66 1.32 1 2 C2.65 1.34 4.3 0.68 6 0 C6.33 1.32 6.66 2.64 7 4 C2.25 5 2.25 5 0 5 C0 3.35 0 1.7 0 0 Z " fill="#0E141A" transform="translate(113,207)"/>
<path d="M0 0 C2.475 0.99 2.475 0.99 5 2 C4.67 2.99 4.34 3.98 4 5 C1.4375 6.1875 1.4375 6.1875 -1 7 C-1.33 5.35 -1.66 3.7 -2 2 C-1.34 2 -0.68 2 0 2 C0 1.34 0 0.68 0 0 Z " fill="#9C9EA5" transform="translate(261,192)"/>
<path d="M0 0 C1.2065625 0.0309375 1.2065625 0.0309375 2.4375 0.0625 C2.1075 1.3825 1.7775 2.7025 1.4375 4.0625 C0.1175 4.3925 -1.2025 4.7225 -2.5625 5.0625 C-3.125 3.125 -3.125 3.125 -3.5625 1.0625 C-2.5625 0.0625 -2.5625 0.0625 0 0 Z " fill="#25282C" transform="translate(102.5625,166.9375)"/>
<path d="M0 0 C1.65 0.33 3.3 0.66 5 1 C5 1.99 5 2.98 5 4 C2.69 4.33 0.38 4.66 -2 5 C-1.34 3.35 -0.68 1.7 0 0 Z " fill="#202428" transform="translate(99,161)"/>
<path d="M0 0 C1.32 0 2.64 0 4 0 C4.33 0.99 4.66 1.98 5 3 C4.34 3 3.68 3 3 3 C2.71125 3.639375 2.4225 4.27875 2.125 4.9375 C1 7 1 7 -1 8 C-0.67 5.36 -0.34 2.72 0 0 Z " fill="#070E13" transform="translate(79,152)"/>
<path d="M0 0 C1.32 0 2.64 0 4 0 C4 1.65 4 3.3 4 5 C2.35 4.67 0.7 4.34 -1 4 C-0.67 2.68 -0.34 1.36 0 0 Z " fill="#16191D" transform="translate(96,20)"/>
<path d="M0 0 C0 2.97 0 5.94 0 9 C-0.99 9 -1.98 9 -3 9 C-3 6.36 -3 3.72 -3 1 C-1 0 -1 0 0 0 Z " fill="#070E15" transform="translate(106,16)"/>
<path d="M0 0 C0.99 0.33 1.98 0.66 3 1 C2.67 2.32 2.34 3.64 2 5 C0.68 5 -0.64 5 -2 5 C-1.125 1.125 -1.125 1.125 0 0 Z " fill="#D0D5DB" transform="translate(143,253)"/>
<path d="M0 0 C0 3 0 3 -1 6 C-3.31 6.33 -5.62 6.66 -8 7 C-8 6.34 -8 5.68 -8 5 C-7.05125 4.54625 -6.1025 4.0925 -5.125 3.625 C-1.99686321 2.19761746 -1.99686321 2.19761746 0 0 Z " fill="#1C2229" transform="translate(267,221)"/>
<path d="M0 0 C0.33 0 0.66 0 1 0 C1.08121924 1.60332791 1.13929134 3.20784026 1.1875 4.8125 C1.22230469 5.70582031 1.25710937 6.59914062 1.29296875 7.51953125 C0.95081002 10.41647515 0.24606427 11.22555028 -2 13 C-2.66 12.34 -3.32 11.68 -4 11 C-3.525625 10.67 -3.05125 10.34 -2.5625 10 C-0.14208385 6.90186733 -0.31801083 3.87973208 0 0 Z " fill="#03080E" transform="translate(62,163)"/>
<path d="M0 0 C0.33 1.32 0.66 2.64 1 4 C-1.31 4.33 -3.62 4.66 -6 5 C-6 3.68 -6 2.36 -6 1 C-3.03 1.495 -3.03 1.495 0 2 C0 1.34 0 0.68 0 0 Z " fill="#0A0E17" transform="translate(61,14)"/>
<path d="M0 0 C0.66 1.32 1.32 2.64 2 4 C1.01 4.99 0.02 5.98 -1 7 C-1.99 6.34 -2.98 5.68 -4 5 C-3 2 -3 2 0 0 Z " fill="#0A1119" transform="translate(193,155)"/>
<path d="M0 0 C1.32 0.66 2.64 1.32 4 2 C2.35 3.32 0.7 4.64 -1 6 C-1.625 4.125 -1.625 4.125 -2 2 C-1.34 1.34 -0.68 0.68 0 0 Z " fill="#0C1018" transform="translate(129,153)"/>
<path d="M0 0 C0.66 1.32 1.32 2.64 2 4 C0.625 5.5 0.625 5.5 -1 7 C-1.66 7 -2.32 7 -3 7 C-3.1875 4.625 -3.1875 4.625 -3 2 C-2.01 1.34 -1.02 0.68 0 0 Z " fill="#0D1217" transform="translate(181,151)"/>
<path d="M0 0 C0.99 0 1.98 0 3 0 C2.34 1.65 1.68 3.3 1 5 C-1.31 5 -3.62 5 -6 5 C-3 3 -3 3 0 3 C0 2.01 0 1.02 0 0 Z " fill="#C7C8CC" transform="translate(226,253)"/>
<path d="M0 0 C0.33 0.66 0.66 1.32 1 2 C1.99 2 2.98 2 4 2 C3.67 3.65 3.34 5.3 3 7 C2.34 7 1.68 7 1 7 C1 6.34 1 5.68 1 5 C0.34 4.67 -0.32 4.34 -1 4 C-0.67 2.68 -0.34 1.36 0 0 Z " fill="#080F16" transform="translate(56,249)"/>
<path d="M0 0 C1.65 0 3.3 0 5 0 C5.33 0.99 5.66 1.98 6 3 C3.125 3.625 3.125 3.625 0 4 C-0.66 3.34 -1.32 2.68 -2 2 C-1.34 2 -0.68 2 0 2 C0 1.34 0 0.68 0 0 Z " fill="#101218" transform="translate(97,249)"/>
<path d="M0 0 C0.99 0.33 1.98 0.66 3 1 C0.36 3.64 -2.28 6.28 -5 9 C-5.66 8.67 -6.32 8.34 -7 8 C-4.69 5.36 -2.38 2.72 0 0 Z " fill="#D1D5D8" transform="translate(48,245)"/>
<path d="M0 0 C1.32 0.66 2.64 1.32 4 2 C4 3.32 4 4.64 4 6 C3.01 6.33 2.02 6.66 1 7 C1 5.68 1 4.36 1 3 C0.34 3 -0.32 3 -1 3 C-0.67 2.01 -0.34 1.02 0 0 Z " fill="#BDBEC4" transform="translate(257,244)"/>
<path d="M0 0 C0.33 0 0.66 0 1 0 C1.33 2.97 1.66 5.94 2 9 C1.01 9 0.02 9 -1 9 C-1.09765625 2.84765625 -1.09765625 2.84765625 -1 1 C-0.67 0.67 -0.34 0.34 0 0 Z " fill="#080D11" transform="translate(111,167)"/>
<path d="M0 0 C0.5625 1.9375 0.5625 1.9375 1 4 C0 5 0 5 -3.0625 5.0625 C-4.031875 5.041875 -5.00125 5.02125 -6 5 C-6 4.01 -6 3.02 -6 2 C-4.02 2 -2.04 2 0 2 C0 1.34 0 0.68 0 0 Z " fill="#EDF4F6" transform="translate(53,26)"/>
<path d="M0 0 C2.475 0.99 2.475 0.99 5 2 C4.67 2.99 4.34 3.98 4 5 C1.03 4.505 1.03 4.505 -2 4 C-1.34 2.68 -0.68 1.36 0 0 Z " fill="#F5F6F9" transform="translate(173,264)"/>
<path d="M0 0 C2.625 -0.1875 2.625 -0.1875 5 0 C5.33 0.66 5.66 1.32 6 2 C3.64561267 3.42944945 2.51967567 4.08661261 -0.25 3.625 C-0.8275 3.41875 -1.405 3.2125 -2 3 C-1.34 2.01 -0.68 1.02 0 0 Z " fill="#C9CBCC" transform="translate(251,263)"/>
<path d="M0 0 C0.33 0 0.66 0 1 0 C1.33 3.3 1.66 6.6 2 10 C1.67 9.34 1.34 8.68 1 8 C0.01 7.67 -0.98 7.34 -2 7 C-2 6.01 -2 5.02 -2 4 C-1.34 4 -0.68 4 0 4 C0 2.68 0 1.36 0 0 Z " fill="#16202A" transform="translate(88,253)"/>
<path d="M0 0 C0 1.98 0 3.96 0 6 C-0.598125 5.38125 -1.19625 4.7625 -1.8125 4.125 C-4.00811144 1.86323046 -4.00811144 1.86323046 -7 0 C-2.25 -1.125 -2.25 -1.125 0 0 Z " fill="#34393F" transform="translate(105,252)"/>
<path d="M0 0 C0.66 0 1.32 0 2 0 C2.33 2.64 2.66 5.28 3 8 C2.01 8.33 1.02 8.66 0 9 C0 6.03 0 3.06 0 0 Z " fill="#080A10" transform="translate(139,161)"/>
<path d="M0 0 C0.33 0.99 0.66 1.98 1 3 C0.360625 3.12375 -0.27875 3.2475 -0.9375 3.375 C-1.618125 3.58125 -2.29875 3.7875 -3 4 C-3.33 4.66 -3.66 5.32 -4 6 C-4.99 5.67 -5.98 5.34 -7 5 C-7 4.34 -7 3.68 -7 3 C-4.69 2.01 -2.38 1.02 0 0 Z " fill="#24292E" transform="translate(167,139)"/>
<path d="M0 0 C0.268125 0.639375 0.53625 1.27875 0.8125 1.9375 C1.88667752 4.33131686 1.88667752 4.33131686 5 5 C4.67 5.99 4.34 6.98 4 8 C2.68 7.67 1.36 7.34 0 7 C0 4.69 0 2.38 0 0 Z " fill="#ECF2F6" transform="translate(63,20)"/>
<path d="M0 0 C0.99 0 1.98 0 3 0 C3 2.64 3 5.28 3 8 C2.01 8 1.02 8 0 8 C0 5.36 0 2.72 0 0 Z " fill="#4E5960" transform="translate(55,19)"/>
<path d="M0 0 C1.4606285 2.64738916 2 3.89448334 2 7 C0.02 7.33 -1.96 7.66 -4 8 C-3.34 7.01 -2.68 6.02 -2 5 C-1.34 5 -0.68 5 0 5 C0 3.35 0 1.7 0 0 Z " fill="#242934" transform="translate(56,205)"/>
<path d="M0 0 C0.33 0.66 0.66 1.32 1 2 C1.99 2.33 2.98 2.66 4 3 C2.1875 4.0625 2.1875 4.0625 0 5 C-0.99 4.67 -1.98 4.34 -3 4 C-2.01 2.68 -1.02 1.36 0 0 Z " fill="#0E1218" transform="translate(168,172)"/>
<path d="M0 0 C0.33 0 0.66 0 1 0 C1 1.98 1 3.96 1 6 C-0.98 6.33 -2.96 6.66 -5 7 C-4.19152271 5.83054208 -3.37810888 4.66449539 -2.5625 3.5 C-2.11003906 2.8503125 -1.65757813 2.200625 -1.19140625 1.53125 C-0.79824219 1.0259375 -0.40507813 0.520625 0 0 Z " fill="#262A2F" transform="translate(42,165)"/>
<path d="M0 0 C1.65 0 3.3 0 5 0 C5.33 0.99 5.66 1.98 6 3 C3.69 3 1.38 3 -1 3 C-0.67 2.01 -0.34 1.02 0 0 Z " fill="#1D2024" transform="translate(198,161)"/>
<path d="M0 0 C3.465 1.485 3.465 1.485 7 3 C7 3.33 7 3.66 7 4 C4.69 4.33 2.38 4.66 0 5 C-0.33 4.01 -0.66 3.02 -1 2 C-0.67 1.34 -0.34 0.68 0 0 Z " fill="#1D2024" transform="translate(120,138)"/>
<path d="M0 0 C1.32 1.32 2.64 2.64 4 4 C3.34 4 2.68 4 2 4 C1.67 4.66 1.34 5.32 1 6 C-0.32 5.01 -1.64 4.02 -3 3 C-2.01 2.01 -1.02 1.02 0 0 Z " fill="#090E14" transform="translate(133,87)"/>
<path d="M0 0 C0 0.99 0 1.98 0 3 C0.33 3.99 0.66 4.98 1 6 C-0.98 6.33 -2.96 6.66 -5 7 C-1.125 1.125 -1.125 1.125 0 0 Z " fill="#2C2E32" transform="translate(114,63)"/>
<path d="M0 0 C1.98 0 3.96 0 6 0 C5.360625 0.4125 4.72125 0.825 4.0625 1.25 C1.79009069 3.17810487 1.39803561 4.11424181 1 7 C0.34 7 -0.32 7 -1 7 C-0.67 4.69 -0.34 2.38 0 0 Z " fill="#23282E" transform="translate(174,36)"/>
<path d="M0 0 C1.32 0 2.64 0 4 0 C4 1.32 4 2.64 4 4 C2.35 3.67 0.7 3.34 -1 3 C-0.67 2.01 -0.34 1.02 0 0 Z " fill="#040A12" transform="translate(48,20)"/>
<path d="M0 0 C0.99 0.99 1.98 1.98 3 3 C0.37684968 4.31157516 -1.23033436 3.89649988 -4.125 3.5625 C-5.03507813 3.46066406 -5.94515625 3.35882813 -6.8828125 3.25390625 C-7.58148438 3.17011719 -8.28015625 3.08632812 -9 3 C-9 2.67 -9 2.34 -9 2 C-6.94921875 1.77213542 -4.8984375 1.54427083 -2.84765625 1.31640625 C-0.98859771 1.18113386 -0.98859771 1.18113386 0 0 Z " fill="#20232C" transform="translate(231,202)"/>
<path d="M0 0 C1.32 0 2.64 0 4 0 C4 0.66 4 1.32 4 2 C3.01 2.66 2.02 3.32 1 4 C1 4.66 1 5.32 1 6 C0.34 6 -0.32 6 -1 6 C-1.042721 4.33388095 -1.04063832 2.66617115 -1 1 C-0.67 0.67 -0.34 0.34 0 0 Z " fill="#080C11" transform="translate(49,162)"/>
<path d="M0 0 C0.33 0.99 0.66 1.98 1 3 C-0.65 4.65 -2.3 6.3 -4 8 C-4.66 7.67 -5.32 7.34 -6 7 C-4.02 4.69 -2.04 2.38 0 0 Z " fill="#2E3135" transform="translate(146,115)"/>
<path d="M0 0 C2.64 0 5.28 0 8 0 C7.01 0.495 7.01 0.495 6 1 C5.67 1.99 5.34 2.98 5 4 C3.0625 3.6875 3.0625 3.6875 1 3 C0.67 2.01 0.34 1.02 0 0 Z " fill="#2D343C" transform="translate(108,36)"/>
<path d="M0 0 C0.33 0 0.66 0 1 0 C1.28875 1.093125 1.5775 2.18625 1.875 3.3125 C2.81893204 7.04013845 2.81893204 7.04013845 5 10 C2.525 9.01 2.525 9.01 0 8 C0 5.36 0 2.72 0 0 Z " fill="#080C11" transform="translate(80,20)"/>
<path d="M0 0 C-0.99 0.495 -0.99 0.495 -2 1 C-2.33 1.66 -2.66 2.32 -3 3 C-4.65 2.67 -6.3 2.34 -8 2 C-6.14210462 -1.71579076 -3.44525918 -1.06921837 0 0 Z " fill="#2C323A" transform="translate(29,4)"/>
</svg>
